<svg width="233" height="63" viewBox="0 0 233 63" fill="none" xmlns="http://www.w3.org/2000/svg">
<path d="M24.0383 30.0241C25.3105 30.0241 26.5285 29.85 27.6924 29.5017C28.8834 29.1266 29.8036 28.6578 30.4533 28.0953V24.9207H24.7691V21.3845H34.8787V29.8232C33.6607 31.0823 32.0638 32.0601 30.0879 32.7566C28.1119 33.4531 26.0413 33.8014 23.8759 33.8014C20.1136 33.8014 17.2174 32.77 15.1874 30.7072C13.1573 28.6444 12.1423 25.711 12.1423 21.9069C12.1423 18.1296 13.1573 15.2364 15.1874 13.2272C17.2445 11.1912 20.1813 10.1732 23.9977 10.1732C29.4382 10.1732 32.9028 12.169 34.3915 16.1606L29.9254 17.4867C29.4382 16.3348 28.6804 15.4641 27.6518 14.8747C26.6233 14.2586 25.4052 13.9505 23.9977 13.9505C21.7241 13.9505 19.9918 14.647 18.8008 16.0401C17.6099 17.4063 17.0144 19.3619 17.0144 21.9069C17.0144 24.5055 17.6234 26.5147 18.8414 27.9345C20.0865 29.3276 21.8188 30.0241 24.0383 30.0241Z" fill="#F95252"/>
<path d="M53.967 33.4799L48.5671 24.76H42.883V33.4799H38.0515V10.5349H49.6227C52.3836 10.5349 54.5084 11.1242 55.9971 12.303C57.5128 13.4817 58.2707 15.1694 58.2707 17.3661C58.2707 18.9735 57.8106 20.3665 56.8903 21.5453C55.97 22.6972 54.7249 23.4607 53.155 23.8358L59.4075 33.4799H53.967ZM53.3986 17.5671C53.3986 15.3703 51.964 14.272 49.0949 14.272H42.883V21.0229H49.2573C50.6107 21.0229 51.6392 20.7282 52.343 20.1388C53.0467 19.5227 53.3986 18.6654 53.3986 17.5671Z" fill="#F95252"/>
<path d="M77.5538 33.4799L75.5238 27.6131H66.6728L64.6021 33.4799H59.7707L68.2156 10.5349H73.9403L82.3853 33.4799H77.5538ZM71.0577 14.0711L70.9765 14.4327C70.8682 14.8346 70.7329 15.29 70.5705 15.799C70.4351 16.2812 69.5013 19.0137 67.769 23.9965H74.4275L72.1133 17.4063L71.4231 15.1962L71.0577 14.0711Z" fill="#F95252"/>
<path d="M98.4203 33.4799L88.3107 15.799C88.5002 17.5135 88.6085 18.8931 88.6356 19.9379V33.4799H84.3319V10.5349H89.8536L100.126 28.3364C99.9361 26.7022 99.8278 25.2154 99.8008 23.8759V10.5349H104.104V33.4799H98.4203Z" fill="#F95252"/>
<path d="M117.906 14.2318V33.4799H113.075V14.2318H105.564V10.5349H125.418V14.2318H117.906Z" fill="#F95252"/>
<path d="M145.707 26.8496C145.707 29.0999 144.868 30.8278 143.19 32.0333C141.512 33.212 139.035 33.8014 135.76 33.8014C132.782 33.8014 130.455 33.279 128.777 32.2342C127.098 31.1894 126.016 29.6089 125.528 27.4925L130.198 26.729C130.522 27.9345 131.145 28.8186 132.065 29.3811C132.985 29.9437 134.271 30.225 135.922 30.225C139.306 30.225 140.997 29.1936 140.997 27.1308C140.997 26.4879 140.794 25.9521 140.388 25.5235C140.009 25.0949 139.468 24.7466 138.764 24.4787C138.061 24.184 136.707 23.8358 134.704 23.4339C132.972 23.0321 131.754 22.7106 131.05 22.4695C130.374 22.2284 129.764 21.9471 129.223 21.6256C128.682 21.2774 128.208 20.8755 127.802 20.4201C127.423 19.9647 127.125 19.4289 126.909 18.8128C126.719 18.1698 126.625 17.4331 126.625 16.6027C126.625 14.5399 127.41 12.9593 128.98 11.8609C130.549 10.7358 132.837 10.1732 135.841 10.1732C138.71 10.1732 140.862 10.6286 142.297 11.5395C143.758 12.4235 144.692 13.8969 145.098 15.9597L140.388 16.5625C140.145 15.5713 139.658 14.8346 138.927 14.3523C138.196 13.8434 137.14 13.5889 135.76 13.5889C132.81 13.5889 131.334 14.4997 131.334 16.3214C131.334 16.9107 131.483 17.4063 131.781 17.8082C132.106 18.1832 132.566 18.5047 133.161 18.7726C133.784 19.0405 135.043 19.3753 136.937 19.7772C139.157 20.2326 140.74 20.6612 141.688 21.0631C142.662 21.4649 143.42 21.9337 143.961 22.4695C144.53 22.9785 144.963 23.5947 145.26 24.318C145.558 25.0413 145.707 25.8851 145.707 26.8496Z" fill="#F95252"/>
<path d="M202.207 33.8013C199.002 33.8013 196.544 33.0367 194.833 31.5076C193.149 29.9515 192.307 27.7382 192.307 24.8677V10.5013H197.155V24.5055C197.155 26.3298 197.59 27.7114 198.459 28.6504C199.355 29.5625 200.646 30.0186 202.33 30.0186C204.068 30.0186 205.399 29.5357 206.322 28.5699C207.273 27.5773 207.748 26.1688 207.748 24.3445V10.5013H212.637V24.6262C212.637 27.5504 211.727 29.8174 209.908 31.4271C208.088 33.0099 205.521 33.8013 202.207 33.8013Z" fill="#004897"/>
<path d="M233 33.4794H214.34V30.0589L226.929 14.2841H215.603V10.5013H232.307V13.8414L219.759 29.6967H233V33.4794Z" fill="#004897"/>
<path d="M14.239 19.6902C15.8102 10.8612 23.7784 10.051 27.5662 10.7494V6.27909C16.7922 4.04391 10.8254 12.4258 9.18871 16.8962L14.239 19.6902Z" fill="#004897"/>
<path d="M28.4569 5.59612C14.5332 3.24712 8.90743 12.9195 8.06357 17.7556L0.328156 19.6901L11.1577 1.31265H33.8014L28.4569 5.59612Z" fill="#004897"/>
<path fill-rule="evenodd" clip-rule="evenodd" d="M11.1271 0.984589H34.4578L28.5655 5.82709L28.4654 5.80979C21.5868 4.61985 16.7816 6.47541 13.5915 9.22014C10.3922 11.9727 8.80328 15.632 8.39054 18.0575L8.36608 18.2012L1.52588e-05 20.3466L11.1271 0.984589ZM11.3842 1.43388L0.916913 19.6478L7.97655 17.8375C8.44197 15.3212 10.0778 11.6524 13.3018 8.87849C16.5813 6.05689 21.4902 4.1735 28.4407 5.34982L33.2055 1.43388H11.3842Z" fill="#004897"/>
<path d="M15.8679 1.04501H22.9718C21.9654 0.778676 19.1357 0.263757 15.8679 0.334781C12.6002 0.405804 11.8424 3.73798 11.872 5.39519L12.2272 22.8847C9.10155 24.2341 10.9249 28.5369 12.2272 30.5197C11.7299 27.8918 12.2568 26.1695 12.5824 25.6368V29.0992C12.9968 29.0104 13.9321 28.2647 14.3584 25.9919C14.7846 23.7192 13.5296 22.7959 12.8488 22.6183V5.39519C12.8488 2.12812 14.8616 1.13379 15.8679 1.04501Z" fill="#004897"/>
<path fill-rule="evenodd" clip-rule="evenodd" d="M22.9717 0.723984L22.8984 1.27168H15.8236C15.3876 1.31338 14.7077 1.55495 14.1349 2.16257C13.5626 2.76972 13.0808 3.7605 13.0808 5.32856V22.2939C13.4509 22.4415 13.883 22.7438 14.2041 23.2423C14.593 23.8461 14.8058 24.7161 14.5823 25.9065C14.3642 27.0684 14.0121 27.8597 13.6461 28.3792C13.2863 28.8901 12.8959 29.1598 12.5923 29.2248L12.3067 29.2859C12.3386 29.6107 12.3872 29.9547 12.4558 30.3171L11.9405 30.5197C11.2787 29.5132 10.477 27.9092 10.2414 26.3684C10.1234 25.5965 10.1441 24.8189 10.4162 24.1357C10.6726 23.4917 11.1455 22.9498 11.8914 22.5834L11.5407 5.33347C11.5253 4.4733 11.7126 3.17807 12.3363 2.0782C12.968 0.964306 14.0546 0.0446822 15.8042 0.00669963C19.0931 -0.0647016 21.9433 0.452125 22.9717 0.723984ZM12.1779 22.759C9.3625 23.9731 10.5712 27.5859 11.789 29.7309C11.9202 29.962 12.0515 30.176 12.1779 30.3682C12.1304 30.1177 12.0923 29.8754 12.0625 29.6416C11.8646 28.091 12.031 26.9146 12.2495 26.1849C12.3423 25.8746 12.4446 25.6451 12.5323 25.5019V28.9526C12.6103 28.9359 12.7069 28.8958 12.815 28.8266C13.2799 28.5293 13.9592 27.6933 14.3042 25.8558C14.7295 23.5907 13.4773 22.6705 12.7981 22.4936V5.32856C12.7981 2.07252 14.8063 1.08155 15.8104 0.993074H22.8984C22.6018 0.914674 22.1465 0.814662 21.5682 0.714467C20.1883 0.475433 18.1079 0.235363 15.8104 0.28524C12.55 0.356023 11.7939 3.67695 11.8235 5.32856L12.1779 22.759Z" fill="#0094AF"/>
<path fill-rule="evenodd" clip-rule="evenodd" d="M154.896 22.1301C154.896 30.3756 161.52 37.0831 169.663 37.0831C177.807 37.0831 184.431 30.3756 184.431 22.1301C184.431 21.1047 184.326 20.1221 184.136 19.1822C183.967 19.5453 182.596 19.6094 181.836 19.2249C180.971 18.8191 178.777 17.4946 178.039 18.7977C177.3 20.1007 176.984 19.7376 176.119 20.528C175.254 21.3183 175.127 20.9979 174.895 21.062C174.178 21.2329 173.018 20.293 172.912 20.2289C172.786 20.1862 172.343 20.1862 172.216 20.2289C172.047 20.2289 171.752 20.8057 171.731 20.9552C171.731 21.0834 171.963 21.1902 172.005 21.3824C172.047 21.5747 171.478 22.4505 171.309 22.6428C171.14 22.835 170.824 22.9418 170.592 23.2195C170.317 23.4972 170.528 23.5186 170.36 23.9244C170.191 24.3303 169.706 25.6334 169.347 26.6587C168.946 27.6841 168.355 27.7695 167.955 27.7695C167.533 27.8122 166.963 28.4104 166.541 28.6667C166.119 28.9658 165.55 29.0085 165.676 29.0939C165.803 29.1794 167.322 28.5599 167.385 28.6667C167.427 28.7735 166.963 29.0085 166.583 29.3075C166.183 29.6066 166.393 29.0085 164.579 29.9484C162.765 30.8883 161.837 29.6493 160.887 29.5852C159.938 29.5212 161.246 28.7735 160.613 29.1794C159.98 29.5852 158.735 29.1794 158.271 29.4784C157.807 29.7561 158.799 31.3582 158.799 31.3582C158.335 31.3155 157.575 29.8843 156.858 28.8803C156.141 27.8763 156.731 27.2141 156.963 26.4024C157.238 25.5693 157.153 25.5266 156.858 25.8043C156.584 26.082 156.499 25.6761 156.584 25.0352C156.689 24.4371 157.449 24.2235 157.343 23.2622C157.28 22.2583 157.533 23.1554 157.807 23.0273C158.081 22.8991 158.039 23.1554 158.44 23.839C158.862 24.4798 158.904 23.7963 159.727 22.6641C160.55 21.532 159.2 21.8524 158.567 22.0019C157.934 22.1514 158.44 21.1688 158.44 21.1688C158.904 20.4639 158.482 20.5921 158.609 20.1007C158.735 19.6094 159.959 18.1568 159.959 18.1568C160.887 19.9298 160.972 18.819 161.204 18.52C161.436 18.2209 161.837 19.1181 161.837 19.1181C161.478 19.4813 161.879 19.524 162.005 19.759C162.132 19.9939 162.47 19.8017 162.47 19.8017C162.659 20.9979 163.925 20.7416 164.221 20.6989C164.516 20.6989 164.98 21.5106 165.444 21.7029C165.866 21.8951 166.794 21.1688 166.837 21.5747C166.9 21.9806 165.444 22.301 165.972 24.373C166.14 25.0139 166.837 26.381 168.25 25.6334C169.706 24.8644 167.849 23.6681 168.06 23.2622C168.271 22.8564 169.178 23.3904 169.22 23.305C169.263 23.2195 169.263 22.1728 170.507 22.1087C171.752 22.0446 171.625 20.4639 171.668 20.1435C171.668 19.7803 170.739 18.6482 170.718 18.4986C170.655 18.3705 170.128 17.6869 170.908 16.2984C171.668 14.8885 171.562 14.205 171.9 13.735C172.237 13.2651 172.891 13.5641 173.123 13.1369C173.355 12.7097 173.06 10.8726 173.777 10.4026C174.495 9.93267 178.186 12.2824 178.587 13.0087C178.988 13.735 179.937 14.0341 180.528 14.8031C181.119 15.5721 181.878 16.5334 182.448 17.516C182.933 18.3918 183.84 18.52 184.136 18.9259C182.659 12.2183 176.752 7.21976 169.706 7.21976C161.562 7.21976 154.938 13.9273 154.938 22.1728L154.896 22.1301ZM168.735 18.6268C168.798 18.819 169.199 19.2249 168.566 20.293C167.934 21.3183 168.081 22.0233 167.976 22.1301C167.976 22.1301 167.744 22.2369 167.68 21.7669C167.575 20.827 168.545 19.6735 168.545 19.3958C168.545 19.1181 168.271 18.9899 168.44 18.52C168.609 18.05 168.714 18.4132 168.735 18.6268ZM156.373 23.5399C156.309 23.6467 156.204 23.4759 156.077 23.3477C156.014 23.2836 155.845 23.305 155.782 23.2409C155.55 23.0059 155.254 21.9378 155.845 22.1301C156.415 22.3651 156.478 23.369 156.373 23.5399ZM158.25 20.9125C158.208 21.3183 158.145 22.1514 157.955 22.0233C157.364 21.3824 157.153 22.2155 157.153 22.7496C157.111 23.2836 156.816 23.4759 156.752 23.2195C156.689 22.9632 156.795 21.9165 156.921 21.7242C157.048 21.5533 157.449 20.6134 157.723 20.5493C157.997 20.5066 158.25 20.5493 158.25 20.9125ZM158.145 17.7723C158.335 18.0714 157.28 19.5453 157.048 19.8017C156.035 20.9979 156.394 21.7029 156.183 21.9378C155.972 22.1728 155.782 22.1087 155.465 21.7029C155.149 21.297 155.592 20.2289 155.655 19.5667C155.719 18.9259 156.225 18.1568 156.816 18.1568C157.343 18.1141 157.87 17.4519 158.145 17.751L158.145 17.7723Z" fill="#004897"/>
<path d="M20.2065 57.5426C19.6733 57.5426 19.1881 57.4142 18.751 57.1573C18.3244 56.9003 17.9565 56.5471 17.6473 56.0975C17.3487 55.6479 17.1195 55.1234 16.9595 54.5239C16.8102 53.9138 16.7463 53.2661 16.7676 52.581C16.7889 51.9388 16.8689 51.243 17.0075 50.4936C17.1568 49.7443 17.3647 48.995 17.6313 48.2457C17.8979 47.4856 18.2178 46.7577 18.591 46.0619C18.9749 45.3554 19.4121 44.7345 19.9026 44.1993C20.3931 43.6641 20.9369 43.2359 21.5341 42.9148C22.1312 42.5829 22.787 42.417 23.5014 42.417C23.9386 42.417 24.3065 42.508 24.6051 42.69C24.9143 42.8612 25.1596 43.0914 25.3408 43.3804C25.5328 43.6694 25.6661 43.9959 25.7407 44.3599C25.8154 44.7238 25.8473 45.0931 25.8367 45.4678C25.8154 45.8211 25.762 46.1636 25.6767 46.4955C25.6021 46.8273 25.4901 47.127 25.3408 47.3946C25.2022 47.6516 25.0263 47.8603 24.813 48.0209C24.6104 48.1707 24.3758 48.2457 24.1092 48.2457C23.9813 48.235 23.8586 48.1921 23.7414 48.1172C23.6347 48.053 23.5228 47.9566 23.4055 47.8282C23.2988 47.6997 23.1975 47.5124 23.1016 47.2662C23.3895 47.1484 23.6134 46.945 23.7733 46.656C23.944 46.3563 24.0719 46.0459 24.1572 45.7247C24.2532 45.3608 24.3172 44.954 24.3492 44.5044C24.3705 44.0655 24.2798 43.7444 24.0772 43.541C23.8746 43.3376 23.6454 43.2359 23.3895 43.2359C22.8883 43.2359 22.3605 43.4982 21.806 44.0227C21.2515 44.5472 20.7343 45.2591 20.2545 46.1583C19.7853 47.0467 19.3854 48.0851 19.0549 49.2733C18.735 50.4615 18.5484 51.7193 18.495 53.0467C18.4737 53.6461 18.511 54.1546 18.607 54.5721C18.7136 54.9896 18.8576 55.3321 19.0389 55.5997C19.2308 55.8673 19.4441 56.06 19.6787 56.1778C19.9132 56.2955 20.1478 56.3544 20.3824 56.3544C20.7556 56.3544 21.1075 56.2741 21.4381 56.1136C21.7687 55.953 22.0672 55.7549 22.3338 55.5194C22.611 55.2839 22.8456 55.0377 23.0376 54.7808C23.2402 54.5346 23.3948 54.3152 23.5014 54.1225C23.5761 53.9833 23.656 53.8977 23.7414 53.8656C23.8267 53.8335 23.9013 53.8442 23.9653 53.8977C24.0293 53.9405 24.0719 54.0154 24.0932 54.1225C24.1146 54.2188 24.0932 54.3366 24.0293 54.4757C23.848 54.8397 23.6241 55.2037 23.3575 55.5676C23.1016 55.9316 22.8083 56.2581 22.4778 56.5471C22.1579 56.8468 21.806 57.0877 21.4221 57.2697C21.0382 57.4516 20.633 57.5426 20.2065 57.5426Z" fill="#004897"/>
<path d="M30.4912 52.003C30.3846 52.4098 30.2406 52.7898 30.0593 53.143C29.878 53.4963 29.6595 53.8014 29.4035 54.0583C29.1583 54.3152 28.8757 54.5132 28.5558 54.6524C28.2466 54.8022 27.9053 54.8772 27.5321 54.8772C27.0949 54.8772 26.7484 54.7808 26.4925 54.5881C26.2472 54.4062 26.0606 54.176 25.9326 53.8977C25.8154 53.6194 25.746 53.3143 25.7247 52.9825C25.6927 52.6506 25.6767 52.3402 25.6767 52.0512C25.6767 51.8478 25.7034 51.623 25.7567 51.3768C25.7994 51.1306 25.8633 50.879 25.9486 50.6221C26.0339 50.3652 26.1406 50.1083 26.2685 49.8514C26.4072 49.5944 26.5671 49.3589 26.7484 49.1448C26.8124 48.9629 26.9083 48.8023 27.0363 48.6631C27.1749 48.524 27.3295 48.4116 27.5001 48.3259C27.6814 48.2296 27.8734 48.16 28.076 48.1172C28.2786 48.0637 28.4758 48.0369 28.6678 48.0369C28.6998 48.0369 28.7264 48.0423 28.7477 48.053C28.7797 48.0637 28.8117 48.0744 28.8437 48.0851C28.9823 48.0958 29.1529 48.1493 29.3555 48.2457C29.5688 48.342 29.7714 48.4865 29.9634 48.6792C30.166 48.8719 30.3366 49.1181 30.4752 49.4178C30.6138 49.7068 30.6831 50.0601 30.6831 50.4776C30.6831 50.5632 30.6778 50.6703 30.6671 50.7987C30.6565 50.9165 30.6458 51.0182 30.6351 51.1038C30.8804 51.0075 31.1363 50.8897 31.4029 50.7505C31.6695 50.6114 31.9254 50.4669 32.1706 50.317C32.4266 50.1564 32.6612 49.9959 32.8744 49.8353C33.0877 49.6747 33.2583 49.5302 33.3863 49.4018C33.4929 49.3054 33.5835 49.2519 33.6582 49.2412C33.7328 49.2305 33.7861 49.2519 33.8181 49.3054C33.8501 49.3589 33.8554 49.4339 33.8341 49.5302C33.8128 49.6266 33.7541 49.7336 33.6582 49.8514C33.6048 49.9156 33.4662 50.044 33.2423 50.2367C33.029 50.4294 32.7731 50.6381 32.4745 50.8629C32.176 51.0877 31.8507 51.3072 31.4989 51.5213C31.147 51.7354 30.8111 51.8959 30.4912 52.003ZM27.7881 49.5623C27.7561 49.6587 27.7401 49.7604 27.7401 49.8674C27.7401 50.0387 27.7507 50.2207 27.7721 50.4133C27.7934 50.5953 27.8467 50.7612 27.932 50.9111C28.0173 51.061 28.1506 51.1894 28.3319 51.2965C28.5238 51.3928 28.7851 51.441 29.1156 51.441C29.1689 51.441 29.2223 51.441 29.2756 51.441C29.3289 51.4303 29.3822 51.4196 29.4355 51.4089C29.4675 51.2697 29.4942 51.1466 29.5155 51.0396C29.5475 50.9218 29.5635 50.8201 29.5635 50.7345C29.5848 50.5311 29.5848 50.3224 29.5635 50.1083C29.5422 49.8942 29.4995 49.7015 29.4355 49.5302C29.3822 49.3482 29.3076 49.2037 29.2116 49.0967C29.1263 48.9789 29.0197 48.92 28.8917 48.92C28.6891 48.92 28.4918 48.9789 28.2999 49.0967C28.1186 49.2037 27.948 49.3589 27.7881 49.5623ZM26.7644 52.3883C26.7644 52.581 26.775 52.7737 26.7964 52.9664C26.8177 53.1484 26.8604 53.3143 26.9243 53.4642C26.9883 53.6033 27.0736 53.7211 27.1802 53.8174C27.2869 53.903 27.4255 53.9459 27.5961 53.9459C27.7881 53.9459 27.964 53.903 28.1239 53.8174C28.2839 53.7211 28.4278 53.6033 28.5558 53.4642C28.6838 53.3143 28.7957 53.1484 28.8917 52.9664C28.9983 52.7737 29.089 52.5757 29.1636 52.3723C29.089 52.383 29.0143 52.3937 28.9397 52.4044C28.8757 52.4044 28.8011 52.4044 28.7158 52.4044C28.3106 52.4044 27.9587 52.2867 27.6601 52.0512C27.3722 51.8049 27.1483 51.4945 26.9883 51.1198C26.9243 51.3446 26.871 51.5641 26.8284 51.7782C26.7857 51.9923 26.7644 52.1957 26.7644 52.3883Z" fill="#004897"/>
<path d="M36.9531 54.9575C36.7079 54.9575 36.4946 54.9093 36.3133 54.8129C36.1427 54.7273 36.0041 54.6096 35.8974 54.4597C35.7908 54.3098 35.7215 54.1386 35.6895 53.9459C35.6575 53.7425 35.6682 53.5284 35.7215 53.3036C35.7535 53.1537 35.8068 52.9557 35.8815 52.7095C35.9561 52.4526 36.0307 52.1796 36.1054 51.8906C36.1907 51.5909 36.2653 51.2965 36.3293 51.0075C36.4039 50.7077 36.4519 50.4401 36.4733 50.2046C36.4946 49.9584 36.4839 49.7604 36.4413 49.6105C36.3986 49.4499 36.308 49.3696 36.1694 49.3696C35.9987 49.3696 35.8228 49.4285 35.6415 49.5463C35.4603 49.6533 35.2736 49.8032 35.0817 49.9959C34.9004 50.1885 34.7138 50.4133 34.5219 50.6703C34.3406 50.9165 34.1593 51.1734 33.9781 51.441C33.8821 51.8049 33.8021 52.1261 33.7381 52.4044C33.6742 52.672 33.6155 52.9182 33.5622 53.143C33.5195 53.3571 33.4769 53.5498 33.4342 53.7211C33.3916 53.8816 33.3543 54.0369 33.3223 54.1867C33.2903 54.2938 33.1943 54.4008 33.0344 54.5079C32.8744 54.6042 32.7038 54.6845 32.5225 54.7487C32.3413 54.8129 32.1866 54.8451 32.0587 54.8451C31.9201 54.8451 31.8614 54.7969 31.8827 54.7005C31.8934 54.6363 31.9307 54.4918 31.9947 54.267C32.048 54.0422 32.1173 53.7799 32.2026 53.4802C32.2773 53.1698 32.3573 52.8433 32.4426 52.5007C32.5279 52.1582 32.6078 51.8317 32.6825 51.5213C32.7358 51.2751 32.7944 51.0021 32.8584 50.7024C32.9117 50.4455 32.9757 50.1457 33.0504 49.8032C33.1357 49.4606 33.2316 49.086 33.3383 48.6792C33.4129 48.615 33.4876 48.5668 33.5622 48.5347C33.6475 48.4919 33.7328 48.4598 33.8181 48.4383C33.9034 48.4062 33.9941 48.3848 34.09 48.3741C34.1753 48.3741 34.2606 48.3795 34.3459 48.3902C34.4206 48.4009 34.4952 48.4223 34.5699 48.4544C34.6552 48.4758 34.7298 48.5133 34.7938 48.5668C34.7618 48.6417 34.7245 48.7488 34.6818 48.8879C34.6392 49.0164 34.5965 49.1556 34.5539 49.3054C34.5112 49.4767 34.4579 49.6533 34.3939 49.8353C34.5326 49.6426 34.6872 49.4499 34.8578 49.2572C35.0391 49.0539 35.231 48.8719 35.4336 48.7113C35.6469 48.5507 35.8708 48.4223 36.1054 48.3259C36.34 48.2189 36.5799 48.1654 36.8251 48.1654C37.0278 48.1654 37.209 48.2242 37.369 48.342C37.5289 48.4598 37.6515 48.6257 37.7369 48.8398C37.8328 49.0432 37.8861 49.2894 37.8968 49.5784C37.9181 49.8674 37.8808 50.1832 37.7848 50.5257L37.6089 51.2322C37.5556 51.457 37.4863 51.7247 37.401 52.0351C37.3263 52.3348 37.2304 52.6667 37.1131 53.0306C37.0491 53.2661 37.0224 53.4695 37.0331 53.6408C37.0544 53.8121 37.161 53.8977 37.353 53.8977C37.5449 53.8977 37.7848 53.7799 38.0727 53.5444C38.3713 53.3089 38.6699 53.0253 38.9685 52.6934C39.267 52.3616 39.5496 52.0244 39.8162 51.6818C40.0828 51.3286 40.2854 51.0449 40.424 50.8308C40.52 50.6917 40.6106 50.6007 40.6959 50.5579C40.7812 50.515 40.8452 50.5097 40.8878 50.5418C40.9412 50.5739 40.9678 50.6488 40.9678 50.7666C40.9678 50.8736 40.9252 51.0128 40.8399 51.1841C40.7652 51.3339 40.6479 51.532 40.488 51.7782C40.3387 52.0244 40.1574 52.2867 39.9441 52.565C39.7309 52.8433 39.5016 53.127 39.2564 53.416C39.0111 53.6943 38.7552 53.9512 38.4886 54.1867C38.222 54.4115 37.9555 54.5935 37.6889 54.7327C37.433 54.8825 37.1877 54.9575 36.9531 54.9575Z" fill="#004897"/>
<path d="M43.6709 53.705C43.5536 53.8656 43.4257 54.0262 43.2871 54.1867C43.1484 54.3473 42.9992 54.4918 42.8392 54.6203C42.6793 54.7487 42.5087 54.8504 42.3274 54.9253C42.1461 55.011 41.9542 55.0538 41.7516 55.0538C41.2504 55.0538 40.8612 54.9521 40.5839 54.7487C40.3067 54.5453 40.0988 54.3045 39.9601 54.0262C39.8322 53.7478 39.7575 53.4642 39.7362 53.1751C39.7042 52.8754 39.6882 52.6346 39.6882 52.4526C39.6882 51.9602 39.7842 51.4624 39.9761 50.9593C40.1681 50.4455 40.424 49.9798 40.7439 49.5623C41.0638 49.1448 41.4263 48.8077 41.8315 48.5507C42.2474 48.2831 42.6686 48.1493 43.0951 48.1493C43.3617 48.1493 43.5856 48.2082 43.7669 48.3259C43.9482 48.433 44.0975 48.5668 44.2148 48.7274C44.3321 48.8879 44.4174 49.0592 44.4707 49.2412C44.5347 49.4232 44.5773 49.5837 44.5986 49.7229C44.62 49.5944 44.6413 49.4606 44.6626 49.3215C44.684 49.2037 44.7053 49.0753 44.7266 48.9361C44.7479 48.7969 44.7693 48.6631 44.7906 48.5347C44.8546 48.4812 44.9239 48.4383 44.9985 48.4062C45.0838 48.3741 45.1691 48.3474 45.2544 48.3259C45.3504 48.3045 45.4464 48.2885 45.5423 48.2778C45.6383 48.2778 45.729 48.2831 45.8143 48.2938C45.9849 48.3152 46.1022 48.3741 46.1661 48.4705C45.8676 49.4553 45.6543 50.1939 45.5264 50.6863C45.4517 50.9646 45.3931 51.2055 45.3504 51.4089C45.3078 51.5587 45.2438 51.7889 45.1585 52.0993C45.0838 52.4098 44.9932 52.7684 44.8866 53.1751C44.7799 53.5819 44.668 54.0208 44.5507 54.4918C44.4334 54.9521 44.3214 55.407 44.2148 55.8566C44.4494 55.6211 44.6999 55.3696 44.9665 55.102C45.2438 54.8344 45.521 54.556 45.7983 54.267C46.0755 53.978 46.3474 53.6836 46.614 53.3839C46.8912 53.0734 47.1472 52.7684 47.3818 52.4686C47.5204 52.2974 47.6377 52.1903 47.7336 52.1475C47.8403 52.1047 47.9149 52.11 47.9576 52.1635C48.0002 52.2064 48.0109 52.2867 47.9896 52.4044C47.9789 52.5114 47.9256 52.6292 47.8296 52.7577C47.659 52.9932 47.4724 53.2447 47.2698 53.5123C47.0672 53.7692 46.8539 54.0315 46.63 54.2991C46.4167 54.556 46.1981 54.8129 45.9742 55.0699C45.7503 55.3268 45.537 55.5623 45.3344 55.7764C45.1211 55.9904 44.8866 56.2152 44.6306 56.4507C44.3747 56.697 44.1241 56.9806 43.8789 57.3018C43.8362 57.5052 43.7989 57.6871 43.7669 57.8477C43.7456 58.0083 43.7243 58.1528 43.7029 58.2812C43.6496 58.6559 43.6123 58.9717 43.591 59.2286C43.5803 59.4962 43.575 59.7264 43.575 59.919C43.575 60.1224 43.5803 60.3044 43.591 60.465C43.6016 60.6363 43.607 60.8129 43.607 60.9949C43.6176 61.3802 43.6016 61.6478 43.559 61.7977C43.527 61.9476 43.4044 62.0225 43.1911 62.0225C43.0845 62.0225 42.9458 61.9743 42.7752 61.878C42.6046 61.7816 42.4393 61.6478 42.2794 61.4766C42.1194 61.3053 41.9808 61.0966 41.8635 60.8503C41.7569 60.6041 41.7036 60.3258 41.7036 60.0154C41.7036 59.6086 41.7836 59.2072 41.9435 58.8111C42.1035 58.4258 42.3167 58.0457 42.5833 57.6711C42.6579 57.4035 42.7379 57.1037 42.8232 56.7719C42.9192 56.44 43.0152 56.0975 43.1111 55.7442C43.2071 55.4017 43.3031 55.0538 43.399 54.7005C43.495 54.3473 43.5856 54.0154 43.6709 53.705ZM41.0638 52.8861C41.0638 53.1965 41.1011 53.4374 41.1757 53.6087C41.2611 53.7799 41.357 53.9084 41.4637 53.994C41.581 54.069 41.6982 54.1118 41.8155 54.1225C41.9328 54.1332 42.0288 54.1386 42.1035 54.1386C42.3274 54.1386 42.546 54.0476 42.7592 53.8656C42.9725 53.6729 43.1644 53.4374 43.3351 53.1591C43.5163 52.8808 43.6709 52.581 43.7989 52.2599C43.9375 51.928 44.0388 51.623 44.1028 51.3446C44.1348 51.1841 44.1615 51.0396 44.1828 50.9111C44.2148 50.7827 44.2414 50.6756 44.2628 50.59C44.0602 50.6114 43.9215 50.5686 43.8469 50.4615C43.7722 50.3545 43.7296 50.1671 43.7189 49.8995C43.7189 49.7925 43.7083 49.6801 43.6869 49.5623C43.6656 49.4339 43.6283 49.3215 43.575 49.2251C43.5217 49.1181 43.4524 49.0324 43.367 48.9682C43.2817 48.904 43.1751 48.8719 43.0471 48.8719C42.7699 48.8719 42.5087 49.0003 42.2634 49.2572C42.0288 49.5142 41.8209 49.8406 41.6396 50.2367C41.4583 50.6328 41.3144 51.0663 41.2077 51.5373C41.1118 52.0083 41.0638 52.4579 41.0638 52.8861Z" fill="#004897"/>
<path d="M49.3331 54.8129C48.9279 54.8129 48.5974 54.7487 48.3414 54.6203C48.0855 54.4918 47.8829 54.3366 47.7336 54.1546C47.595 53.9619 47.4937 53.7585 47.4297 53.5444C47.3764 53.3196 47.3498 53.1163 47.3498 52.9343C47.3498 52.6131 47.3764 52.2759 47.4297 51.9227C47.4831 51.5587 47.547 51.2269 47.6217 50.9272C47.6963 50.6167 47.7603 50.3545 47.8136 50.1404C47.8776 49.9263 47.9202 49.7925 47.9416 49.739C48.0375 49.4285 48.1602 49.1609 48.3095 48.9361C48.4694 48.7006 48.688 48.54 48.9652 48.4544C49.0719 48.433 49.1838 48.4116 49.3011 48.3902C49.3971 48.3795 49.4931 48.3741 49.589 48.3741C49.6957 48.3741 49.7916 48.3902 49.877 48.4223C49.589 49.1609 49.3598 49.7764 49.1892 50.2688C49.0292 50.7612 48.9066 51.1627 48.8213 51.4731C48.7253 51.8264 48.6667 52.11 48.6453 52.3241C48.592 52.8058 48.6347 53.1698 48.7733 53.416C48.9119 53.6622 49.1945 53.7853 49.621 53.7853C49.8983 53.7853 50.1649 53.6836 50.4208 53.4802C50.6767 53.2661 50.9113 52.9932 51.1245 52.6613C51.0926 52.49 51.0766 52.3134 51.0766 52.1314C51.0766 51.7889 51.1032 51.457 51.1565 51.1359C51.2205 50.8041 51.2898 50.499 51.3645 50.2207C51.4498 49.9316 51.5351 49.6747 51.6204 49.4499C51.7164 49.2251 51.7963 49.0485 51.8603 48.92C51.9776 48.6631 52.0842 48.5079 52.1802 48.4544C52.2762 48.3902 52.4308 48.3527 52.6441 48.342C52.7294 48.3313 52.7987 48.3313 52.852 48.342C52.916 48.342 52.9693 48.3474 53.0119 48.3581C53.1399 48.3902 53.2039 48.4544 53.2039 48.5507C53.2039 48.722 53.1932 48.9789 53.1719 49.3215C53.1506 49.664 53.0866 50.0173 52.98 50.3812C52.9053 50.681 52.8307 50.9379 52.756 51.152C52.692 51.3554 52.6281 51.532 52.5641 51.6818C52.5001 51.821 52.4361 51.9388 52.3722 52.0351C52.3082 52.1207 52.2495 52.201 52.1962 52.2759C52.2175 52.5971 52.2442 52.854 52.2762 53.0467C52.3082 53.2394 52.3455 53.3892 52.3881 53.4963C52.4415 53.5926 52.5001 53.6622 52.5641 53.705C52.6387 53.7371 52.7187 53.7532 52.804 53.7532C52.9533 53.7532 53.1292 53.6836 53.3318 53.5444C53.5344 53.3946 53.7424 53.2126 53.9556 52.9985C54.1796 52.7737 54.3982 52.5329 54.6114 52.2759C54.8354 52.0083 55.038 51.7568 55.2192 51.5213C55.4005 51.2858 55.5551 51.0824 55.6831 50.9111C55.811 50.7291 55.891 50.6167 55.923 50.5739C55.9977 50.4776 56.067 50.4187 56.1309 50.3973C56.2056 50.3759 56.2642 50.3866 56.3069 50.4294C56.3495 50.4615 56.3709 50.5204 56.3709 50.606C56.3815 50.681 56.3602 50.7666 56.3069 50.8629C56.0936 51.2697 55.827 51.7032 55.5071 52.1635C55.1979 52.6131 54.862 53.0306 54.4995 53.416C54.1476 53.8014 53.7904 54.1225 53.4278 54.3794C53.0653 54.6363 52.724 54.7648 52.4041 54.7648C52.1162 54.7648 51.887 54.6684 51.7164 54.4757C51.5564 54.2724 51.4178 53.9833 51.3005 53.6087C51.0552 53.994 50.7673 54.2938 50.4368 54.5079C50.1062 54.7112 49.7383 54.8129 49.3331 54.8129Z" fill="#004897"/>
<path d="M62.273 51.2162C61.9531 51.6872 61.5905 52.1475 61.1853 52.5971C60.7801 53.036 60.3483 53.432 59.8897 53.7853C59.4419 54.1278 58.978 54.4062 58.4982 54.6203C58.029 54.8344 57.5705 54.9414 57.1226 54.9414C56.888 54.9414 56.6321 54.8825 56.3549 54.7648C56.0883 54.6577 55.843 54.4865 55.6191 54.2509C55.3952 54.0154 55.2139 53.7104 55.0753 53.3357C54.9473 52.961 54.91 52.5061 54.9633 51.9709C55.006 51.532 55.1393 51.0717 55.3632 50.59C55.5978 50.0976 55.8804 49.648 56.2109 49.2412C56.5521 48.8344 56.9307 48.4972 57.3465 48.2296C57.7731 47.962 58.1996 47.8282 58.6261 47.8282C59.0313 47.8282 59.3246 47.9299 59.5059 48.1333C59.6871 48.3366 59.7671 48.5882 59.7458 48.8879C59.7138 49.2198 59.6178 49.5249 59.4579 49.8032C59.3086 50.0815 59.1273 50.3331 58.914 50.5579C58.7008 50.7827 58.4715 50.986 58.2263 51.168C57.9917 51.35 57.7677 51.5159 57.5545 51.6658C57.3199 51.8264 57.096 51.9816 56.8827 52.1314C56.6694 52.2706 56.4828 52.399 56.3229 52.5168C56.3335 52.7844 56.3815 53.0092 56.4668 53.1912C56.5521 53.3732 56.6588 53.523 56.7867 53.6408C56.9147 53.7478 57.0586 53.8281 57.2186 53.8816C57.3892 53.9245 57.5598 53.9459 57.7304 53.9459C58.093 53.9459 58.4715 53.8335 58.8661 53.6087C59.2606 53.3732 59.6445 53.0949 60.0177 52.7737C60.4016 52.4419 60.7535 52.0993 61.0734 51.7461C61.4039 51.3928 61.6758 51.0877 61.8891 50.8308C61.9637 50.7452 62.0384 50.697 62.113 50.6863C62.1983 50.6649 62.2623 50.6756 62.305 50.7184C62.3583 50.7505 62.3849 50.8148 62.3849 50.9111C62.3849 50.9967 62.3476 51.0984 62.273 51.2162ZM58.1783 48.7434C58.0503 48.7434 57.8957 48.8077 57.7144 48.9361C57.5438 49.0646 57.3732 49.2519 57.2026 49.4981C57.032 49.7336 56.872 50.028 56.7228 50.3812C56.5735 50.7238 56.4615 51.1198 56.3869 51.5694C56.5148 51.4731 56.6534 51.3768 56.8027 51.2804C56.952 51.1734 57.1013 51.061 57.2506 50.9432C57.7091 50.59 58.029 50.2795 58.2103 50.0119C58.3915 49.7443 58.4928 49.5142 58.5142 49.3215C58.5355 49.1181 58.5142 48.9736 58.4502 48.8879C58.3862 48.7916 58.2956 48.7434 58.1783 48.7434Z" fill="#004897"/>
<path d="M60.5135 54.4757C60.4389 54.5935 60.3589 54.6684 60.2736 54.7005C60.1776 54.7434 60.0977 54.7487 60.0337 54.7166C59.959 54.6952 59.9111 54.6417 59.8897 54.556C59.8684 54.4704 59.8897 54.3633 59.9537 54.2349C59.9857 54.1707 60.0603 54.0262 60.1776 53.8014C60.2843 53.5766 60.4176 53.3089 60.5775 52.9985C60.7268 52.6774 60.8921 52.3348 61.0734 51.9709C61.2546 51.5962 61.4252 51.243 61.5852 50.9111C61.7558 50.5793 61.9104 50.2849 62.049 50.028C62.1877 49.7604 62.289 49.5677 62.3529 49.4499C62.2356 49.3429 62.1557 49.2679 62.113 49.2251C62.0704 49.1716 62.0384 49.0646 62.0171 48.904C61.9957 48.7648 62.0277 48.5829 62.113 48.3581C62.1983 48.1333 62.3103 47.9192 62.4489 47.7158C62.5875 47.5017 62.7421 47.3197 62.9128 47.1698C63.0834 47.02 63.2487 46.945 63.4086 46.945C63.7072 46.945 63.9151 47.0414 64.0324 47.2341C64.1604 47.4268 64.235 47.6248 64.2563 47.8282C64.2777 47.9673 64.267 48.144 64.2243 48.3581C64.1817 48.5721 64.1017 48.7648 63.9844 48.9361C64.0164 48.9575 64.0591 48.9843 64.1124 49.0164C64.1657 49.0378 64.251 49.0485 64.3683 49.0485C64.5389 49.0485 64.6562 49.0378 64.7202 49.0164C64.7948 48.995 64.9068 48.9843 65.0561 48.9843C65.2373 48.9843 65.3866 49.0324 65.5039 49.1288C65.6212 49.2144 65.7172 49.3268 65.7918 49.466C65.8665 49.5944 65.9198 49.739 65.9518 49.8995C65.9944 50.0494 66.0211 50.1885 66.0318 50.317C66.0638 50.5846 65.9944 50.8629 65.8238 51.152C65.6532 51.441 65.4453 51.7568 65.2 52.0993C65.0507 52.3134 64.9015 52.5543 64.7522 52.8219C64.6029 53.0895 64.5389 53.3304 64.5602 53.5444C64.5816 53.6836 64.6189 53.796 64.6722 53.8816C64.7255 53.9673 64.8748 54.0101 65.1201 54.0101C65.3013 54.0101 65.4986 53.9459 65.7119 53.8174C65.9358 53.6783 66.1597 53.507 66.3836 53.3036C66.6182 53.0895 66.8475 52.8593 67.0714 52.6131C67.2954 52.3562 67.5033 52.11 67.6952 51.8745C67.8872 51.6283 68.0471 51.4089 68.1751 51.2162C68.3137 51.0235 68.415 50.8843 68.479 50.7987C68.5323 50.7131 68.6016 50.6542 68.6869 50.6221C68.7722 50.59 68.8469 50.59 68.9108 50.6221C68.9748 50.6542 69.0121 50.7184 69.0228 50.8148C69.0441 50.9111 69.0068 51.0396 68.9108 51.2001C68.8469 51.3072 68.7349 51.4785 68.5749 51.714C68.4257 51.9495 68.239 52.2117 68.0151 52.5007C67.8019 52.7898 67.5619 53.0895 67.2954 53.3999C67.0288 53.6997 66.7462 53.978 66.4476 54.2349C66.1597 54.4811 65.8665 54.6845 65.5679 54.8451C65.28 55.0056 65.0028 55.0859 64.7362 55.0859C64.4589 55.0859 64.2297 55.0324 64.0484 54.9253C63.8671 54.8183 63.7178 54.6898 63.6005 54.54C63.4939 54.3794 63.4139 54.2081 63.3606 54.0262C63.318 53.8335 63.302 53.6568 63.3126 53.4963C63.3233 53.3678 63.3553 53.234 63.4086 53.0949C63.4726 52.945 63.5419 52.7951 63.6165 52.6453C63.7018 52.4847 63.7872 52.3295 63.8725 52.1796C63.9684 52.019 64.0537 51.8638 64.1284 51.714C64.3096 51.4035 64.4536 51.1413 64.5602 50.9272C64.6775 50.7024 64.7362 50.515 64.7362 50.3652C64.7362 50.2688 64.7148 50.1832 64.6722 50.1083C64.6295 50.0333 64.5602 49.9959 64.4643 49.9959C64.4003 49.9959 64.3523 50.0012 64.3203 50.0119C64.299 50.0119 64.2723 50.0119 64.2403 50.0119C64.219 50.0119 64.1817 50.0173 64.1284 50.028C64.0857 50.028 64.0164 50.028 63.9204 50.028C63.7818 50.028 63.6645 50.0066 63.5686 49.9637C63.4726 49.9209 63.3819 49.8888 63.2966 49.8674C63.254 49.9423 63.158 50.1029 63.0087 50.3491C62.8594 50.5953 62.6835 50.8843 62.4809 51.2162C62.289 51.548 62.081 51.8959 61.8571 52.2599C61.6438 52.6238 61.4412 52.9664 61.2493 53.2875C61.0574 53.598 60.8974 53.8656 60.7695 54.0904C60.6308 54.3045 60.5455 54.4329 60.5135 54.4757Z" fill="#004897"/>
<path d="M78.2678 50.4936C78.3105 50.4294 78.3638 50.3919 78.4278 50.3812C78.5024 50.3598 78.5611 50.3652 78.6037 50.3973C78.6464 50.4294 78.6677 50.4829 78.6677 50.5579C78.6784 50.6328 78.6517 50.7345 78.5877 50.8629C78.3745 51.2697 78.0919 51.7086 77.74 52.1796C77.3988 52.6506 77.0362 53.0949 76.6523 53.5123C76.2685 53.9191 75.8953 54.2563 75.5327 54.5239C75.1702 54.7915 74.8663 54.9253 74.621 54.9253C74.2691 54.9253 73.9759 54.8558 73.7413 54.7166C73.5067 54.5774 73.3201 54.4062 73.1815 54.2028C73.0535 53.9994 72.9629 53.7799 72.9095 53.5444C72.8562 53.2982 72.8402 53.0734 72.8616 52.8701C72.8722 52.6988 72.9095 52.3937 72.9735 51.9548C73.0375 51.5052 73.1228 50.9914 73.2294 50.4133C73.3361 49.8246 73.4534 49.1984 73.5813 48.5347C73.72 47.8603 73.8639 47.2127 74.0132 46.5918C73.8319 46.6132 73.6506 46.6346 73.4694 46.656C73.2881 46.6774 73.1228 46.6881 72.9735 46.6881C72.6323 46.6881 72.3124 46.6507 72.0138 46.5757C71.7046 46.4901 71.4753 46.4098 71.3261 46.3349C71.2408 46.2921 71.2034 46.2332 71.2141 46.1583C71.2248 46.0726 71.2567 45.9923 71.3101 45.9174C71.3634 45.8318 71.4327 45.7622 71.518 45.7087C71.5926 45.6444 71.6619 45.6123 71.7259 45.6123C71.9285 45.6337 72.1471 45.6551 72.3817 45.6765C72.6163 45.6873 72.8722 45.6873 73.1495 45.6765C73.3521 45.6658 73.544 45.6498 73.7253 45.6284C73.9172 45.607 74.1038 45.5802 74.2851 45.5481C74.4237 45.0343 74.557 44.59 74.685 44.2154C74.8236 43.83 74.9462 43.5624 75.0529 43.4125C75.0849 43.359 75.1542 43.3162 75.2608 43.2841C75.3781 43.2412 75.5007 43.2145 75.6287 43.2038C75.7566 43.1824 75.8793 43.1824 75.9966 43.2038C76.1138 43.2145 76.1992 43.252 76.2525 43.3162C76.3058 43.4018 76.3271 43.6213 76.3165 43.9745C76.3058 44.3278 76.2471 44.7774 76.1405 45.3233C76.5884 45.3233 76.9829 45.3501 77.3241 45.4036C77.676 45.4464 77.9746 45.4999 78.2198 45.5642C78.4651 45.6177 78.6624 45.6765 78.8117 45.7408C78.9609 45.7943 79.0729 45.8318 79.1475 45.8532C79.2222 45.8746 79.2595 45.9281 79.2595 46.0137C79.2702 46.0994 79.2542 46.1904 79.2115 46.2867C79.1795 46.3723 79.1209 46.4473 79.0356 46.5115C78.9503 46.5757 78.8543 46.5971 78.7477 46.5757C78.641 46.565 78.5184 46.5436 78.3798 46.5115C78.2518 46.4794 78.0919 46.4526 77.8999 46.4312C77.7187 46.4098 77.5001 46.3884 77.2442 46.367C76.9882 46.3456 76.6897 46.3349 76.3484 46.3349C76.2845 46.3349 76.2098 46.3402 76.1245 46.3509C76.0499 46.3509 75.9699 46.3509 75.8846 46.3509C75.8419 46.5222 75.7993 46.6935 75.7566 46.8648C75.7246 47.0253 75.6767 47.1966 75.6127 47.3786C75.4741 47.8068 75.3141 48.2724 75.1328 48.7755C74.9729 49.2144 74.7809 49.7175 74.557 50.2849C74.3331 50.8522 74.0825 51.457 73.8053 52.0993C73.7413 52.5596 73.7466 52.9129 73.8213 53.1591C73.9066 53.3946 74.0079 53.5659 74.1252 53.6729C74.2638 53.7907 74.4344 53.8549 74.637 53.8656C74.7969 53.887 74.9889 53.8335 75.2128 53.705C75.4474 53.5659 75.6873 53.3839 75.9326 53.1591C76.1778 52.9343 76.4231 52.6881 76.6683 52.4205C76.9243 52.1528 77.1589 51.8906 77.3721 51.6337C77.5854 51.3768 77.772 51.1466 77.9319 50.9432C78.0919 50.7291 78.2038 50.5793 78.2678 50.4936Z" fill="#004897"/>
<path d="M85.5615 51.0235C85.6361 50.9379 85.7108 50.8951 85.7854 50.8951C85.8707 50.8843 85.9347 50.9058 85.9773 50.9593C86.0307 51.0021 86.052 51.0717 86.0413 51.168C86.0413 51.2644 85.9987 51.3714 85.9134 51.4892C85.7108 51.7675 85.4762 52.0565 85.2096 52.3562C84.943 52.6453 84.6551 52.9289 84.3459 53.2072C84.0473 53.4856 83.7434 53.7478 83.4342 53.994C83.1249 54.2402 82.8264 54.4436 82.5385 54.6042C82.2186 54.7862 81.9466 54.8772 81.7227 54.8772C81.5095 54.8772 81.2962 54.738 81.0829 54.4597C80.891 54.2135 80.795 53.9512 80.795 53.6729C80.8057 53.3839 80.8697 53.0253 80.987 52.5971C81.0616 52.3295 81.1629 52.0137 81.2909 51.6497C81.4295 51.2751 81.5361 50.9165 81.6108 50.5739C81.6961 50.2314 81.7227 49.9423 81.6907 49.7068C81.6587 49.4606 81.5201 49.3375 81.2749 49.3375C81.1042 49.3375 80.9176 49.3964 80.715 49.5142C80.5231 49.6319 80.3258 49.7871 80.1232 49.9798C79.9313 50.1618 79.7447 50.3705 79.5634 50.606C79.3821 50.8415 79.2222 51.0717 79.0836 51.2965C78.9983 51.714 78.913 52.1261 78.8276 52.5329C78.753 52.8754 78.673 53.2501 78.5877 53.6568C78.5131 54.0529 78.4384 54.4062 78.3638 54.7166C78.2998 54.7701 78.2305 54.8076 78.1559 54.829C78.0812 54.8504 78.0119 54.8611 77.9479 54.8611C77.8733 54.8611 77.7986 54.8558 77.724 54.8451C77.6387 54.8236 77.5587 54.7915 77.4841 54.7487C77.4201 54.7059 77.3561 54.647 77.2921 54.5721C77.2282 54.5079 77.1802 54.4169 77.1482 54.2991C77.628 52.3188 78.0066 50.7291 78.2838 49.5302C78.5611 48.3313 78.7743 47.416 78.9236 46.7845C79.0942 46.0352 79.2115 45.516 79.2755 45.227C79.3075 45.0236 79.3341 44.8255 79.3555 44.6328C79.3768 44.4616 79.3875 44.2849 79.3875 44.103C79.3875 43.921 79.3715 43.7551 79.3395 43.6052C79.4248 43.5517 79.5154 43.5089 79.6114 43.4767C79.718 43.4446 79.8193 43.4179 79.9153 43.3965C80.0326 43.3644 80.1499 43.3376 80.2672 43.3162C80.3845 43.2948 80.4911 43.2841 80.5871 43.2841C80.6724 43.2841 80.7524 43.2948 80.827 43.3162C80.9016 43.3269 80.9496 43.359 80.971 43.4125C81.0349 43.466 81.0616 43.5731 81.0509 43.7337C81.0509 43.8942 81.0403 44.0602 81.0189 44.2314C80.9763 44.4348 80.9283 44.6543 80.875 44.8898C80.6511 45.7568 80.4005 46.6025 80.1232 47.4268C79.846 48.2403 79.5901 49.1127 79.3555 50.044C79.4941 49.8299 79.6594 49.6105 79.8513 49.3857C80.0433 49.1609 80.2512 48.9575 80.4751 48.7755C80.7097 48.5829 80.955 48.4276 81.2109 48.3099C81.4668 48.1814 81.7387 48.1172 82.0266 48.1172C82.1759 48.1172 82.3145 48.144 82.4425 48.1975C82.5811 48.2403 82.6984 48.3206 82.7944 48.4383C82.901 48.5454 82.981 48.6953 83.0343 48.8879C83.0876 49.0699 83.1089 49.3001 83.0983 49.5784C83.0983 49.7497 83.077 49.9263 83.0343 50.1083C83.0023 50.2902 82.9543 50.4936 82.8903 50.7184C82.8264 50.9325 82.7411 51.1734 82.6344 51.441C82.5385 51.7086 82.4212 52.019 82.2825 52.3723C82.1866 52.6185 82.1119 52.8272 82.0586 52.9985C82.0053 53.1698 82.016 53.3196 82.0906 53.4481C82.1866 53.6194 82.3732 53.6622 82.6504 53.5766C82.9383 53.4802 83.3649 53.2019 83.93 52.7416C84.058 52.6346 84.2019 52.5007 84.3619 52.3402C84.5218 52.1796 84.6764 52.019 84.8257 51.8585C84.975 51.6872 85.1136 51.5266 85.2416 51.3768C85.3695 51.2269 85.4762 51.1091 85.5615 51.0235Z" fill="#004897"/>
<path d="M92.1834 51.2162C91.8635 51.6872 91.5009 52.1475 91.0957 52.5971C90.6905 53.036 90.2586 53.432 89.8001 53.7853C89.3523 54.1278 88.8884 54.4062 88.4086 54.6203C87.9394 54.8344 87.4809 54.9414 87.033 54.9414C86.7984 54.9414 86.5425 54.8825 86.2653 54.7648C85.9987 54.6577 85.7534 54.4865 85.5295 54.2509C85.3056 54.0154 85.1243 53.7104 84.9857 53.3357C84.8577 52.961 84.8204 52.5061 84.8737 51.9709C84.9164 51.532 85.0496 51.0717 85.2736 50.59C85.5082 50.0976 85.7907 49.648 86.1213 49.2412C86.4625 48.8344 86.8411 48.4972 87.2569 48.2296C87.6835 47.962 88.11 47.8282 88.5365 47.8282C88.9417 47.8282 89.235 47.9299 89.4162 48.1333C89.5975 48.3366 89.6775 48.5882 89.6562 48.8879C89.6242 49.2198 89.5282 49.5249 89.3683 49.8032C89.219 50.0815 89.0377 50.3331 88.8244 50.5579C88.6112 50.7827 88.3819 50.986 88.1367 51.168C87.9021 51.35 87.6781 51.5159 87.4649 51.6658C87.2303 51.8264 87.0063 51.9816 86.7931 52.1314C86.5798 52.2706 86.3932 52.399 86.2333 52.5168C86.2439 52.7844 86.2919 53.0092 86.3772 53.1912C86.4625 53.3732 86.5692 53.523 86.6971 53.6408C86.8251 53.7478 86.969 53.8281 87.129 53.8816C87.2996 53.9245 87.4702 53.9459 87.6408 53.9459C88.0034 53.9459 88.3819 53.8335 88.7765 53.6087C89.171 53.3732 89.5549 53.0949 89.9281 52.7737C90.312 52.4419 90.6638 52.0993 90.9837 51.7461C91.3143 51.3928 91.5862 51.0877 91.7995 50.8308C91.8741 50.7452 91.9488 50.697 92.0234 50.6863C92.1087 50.6649 92.1727 50.6756 92.2153 50.7184C92.2687 50.7505 92.2953 50.8148 92.2953 50.9111C92.2953 50.9967 92.258 51.0984 92.1834 51.2162ZM88.0887 48.7434C87.9607 48.7434 87.8061 48.8077 87.6248 48.9361C87.4542 49.0646 87.2836 49.2519 87.113 49.4981C86.9424 49.7336 86.7824 50.028 86.6331 50.3812C86.4839 50.7238 86.3719 51.1198 86.2972 51.5694C86.4252 51.4731 86.5638 51.3768 86.7131 51.2804C86.8624 51.1734 87.0117 51.061 87.161 50.9432C87.6195 50.59 87.9394 50.2795 88.1207 50.0119C88.3019 49.7443 88.4032 49.5142 88.4246 49.3215C88.4459 49.1181 88.4246 48.9736 88.3606 48.8879C88.2966 48.7916 88.206 48.7434 88.0887 48.7434Z" fill="#004897"/>
<path d="M103.956 51.7782C103.806 52.1635 103.636 52.5382 103.444 52.9022C103.252 53.2661 103.039 53.5926 102.804 53.8816C102.569 54.1707 102.319 54.4008 102.052 54.5721C101.786 54.7434 101.498 54.829 101.188 54.829C100.687 54.829 100.309 54.6631 100.053 54.3312C99.7969 53.9887 99.621 53.5712 99.525 53.0788C99.3757 53.3036 99.2158 53.5284 99.0452 53.7532C98.8745 53.978 98.6933 54.176 98.5013 54.3473C98.3094 54.5186 98.1121 54.6577 97.9095 54.7648C97.7069 54.8718 97.5043 54.9253 97.3017 54.9253C97.0245 54.9253 96.7899 54.8665 96.5979 54.7487C96.406 54.631 96.246 54.4704 96.1181 54.267C96.0008 54.0529 95.9155 53.8121 95.8622 53.5444C95.8089 53.2661 95.7822 52.9717 95.7822 52.6613V52.4686C95.7822 52.0726 95.8142 51.6658 95.8782 51.2483C95.9421 50.8308 96.0115 50.4455 96.0861 50.0922C96.1714 49.739 96.2567 49.4339 96.342 49.177C96.4273 48.9093 96.4913 48.7327 96.534 48.6471C96.6086 48.54 96.7685 48.4383 97.0138 48.342C97.2697 48.235 97.5203 48.1921 97.7656 48.2135C97.8829 48.2242 97.9415 48.2724 97.9415 48.3581C97.9522 48.4437 97.9415 48.5507 97.9095 48.6792C97.8669 48.8612 97.7922 49.1341 97.6856 49.4981C97.5789 49.8621 97.467 50.2581 97.3497 50.6863C97.2431 51.1145 97.1471 51.5373 97.0618 51.9548C96.9765 52.3723 96.9338 52.7202 96.9338 52.9985C96.9338 53.3411 96.9871 53.5873 97.0938 53.7371C97.2004 53.887 97.3657 53.9619 97.5896 53.9619C97.8562 53.9619 98.1494 53.8121 98.4693 53.5123C98.7999 53.2126 99.1198 52.7041 99.429 51.9869C99.4184 51.9227 99.413 51.8585 99.413 51.7942C99.413 51.73 99.413 51.6604 99.413 51.5855C99.413 51.1038 99.429 50.6435 99.461 50.2046C99.5037 49.7657 99.5783 49.3803 99.6849 49.0485C99.8022 48.7167 99.9569 48.4544 100.149 48.2617C100.351 48.069 100.613 47.9727 100.933 47.9727C101.061 47.9727 101.167 48.0102 101.252 48.0851C101.338 48.16 101.38 48.2671 101.38 48.4062C101.38 48.7488 101.258 49.2358 101.013 49.8674C100.778 50.4883 100.495 51.1734 100.165 51.9227C100.133 51.9655 100.111 52.0083 100.101 52.0512C100.133 52.2545 100.17 52.4686 100.213 52.6934C100.266 52.9182 100.335 53.127 100.421 53.3196C100.506 53.5016 100.607 53.6568 100.725 53.7853C100.842 53.903 100.981 53.9619 101.14 53.9619C101.375 53.9619 101.588 53.8495 101.78 53.6247C101.983 53.3999 102.159 53.127 102.308 52.8058C102.468 52.4847 102.607 52.1475 102.724 51.7942C102.841 51.4303 102.932 51.1091 102.996 50.8308C102.964 50.7131 102.937 50.6007 102.916 50.4936C102.895 50.3759 102.884 50.2421 102.884 50.0922C102.884 49.7604 102.932 49.4767 103.028 49.2412C103.124 49.0057 103.246 48.813 103.396 48.6631C103.556 48.5026 103.721 48.3848 103.892 48.3099C104.073 48.235 104.238 48.1975 104.387 48.1975C104.654 48.1975 104.787 48.3152 104.787 48.5507C104.787 48.722 104.745 49.0217 104.659 49.4499C104.574 49.8674 104.451 50.3438 104.291 50.879C104.483 50.9646 104.729 51.0075 105.027 51.0075C105.304 51.0075 105.56 50.9753 105.795 50.9111C106.03 50.8362 106.243 50.7452 106.435 50.6381C106.627 50.5311 106.803 50.4133 106.963 50.2849C107.123 50.1564 107.277 50.0333 107.426 49.9156C107.544 49.8299 107.64 49.8246 107.714 49.8995C107.789 49.9745 107.778 50.0922 107.682 50.2528C107.597 50.3919 107.448 50.5525 107.235 50.7345C107.032 50.9165 106.781 51.0931 106.483 51.2644C106.195 51.4249 105.87 51.5641 105.507 51.6818C105.155 51.7889 104.782 51.8424 104.387 51.8424C104.323 51.8424 104.254 51.8371 104.179 51.8264C104.105 51.8156 104.03 51.7996 103.956 51.7782Z" fill="#004897"/>
<path d="M110.945 52.003C110.839 52.4098 110.695 52.7898 110.513 53.143C110.332 53.4963 110.114 53.8014 109.858 54.0583C109.612 54.3152 109.33 54.5132 109.01 54.6524C108.701 54.8022 108.359 54.8772 107.986 54.8772C107.549 54.8772 107.203 54.7808 106.947 54.5881C106.701 54.4062 106.515 54.176 106.387 53.8977C106.269 53.6194 106.2 53.3143 106.179 52.9825C106.147 52.6506 106.131 52.3402 106.131 52.0512C106.131 51.8478 106.158 51.623 106.211 51.3768C106.254 51.1306 106.317 50.879 106.403 50.6221C106.488 50.3652 106.595 50.1083 106.723 49.8514C106.861 49.5944 107.021 49.3589 107.203 49.1448C107.267 48.9629 107.362 48.8023 107.49 48.6631C107.629 48.524 107.784 48.4116 107.954 48.3259C108.136 48.2296 108.327 48.16 108.53 48.1172C108.733 48.0637 108.93 48.0369 109.122 48.0369C109.154 48.0369 109.181 48.0423 109.202 48.053C109.234 48.0637 109.266 48.0744 109.298 48.0851C109.436 48.0958 109.607 48.1493 109.81 48.2457C110.023 48.342 110.226 48.4865 110.417 48.6792C110.62 48.8719 110.791 49.1181 110.929 49.4178C111.068 49.7068 111.137 50.0601 111.137 50.4776C111.137 50.5632 111.132 50.6703 111.121 50.7987C111.111 50.9165 111.1 51.0182 111.089 51.1038C111.335 51.0075 111.59 50.8897 111.857 50.7505C112.124 50.6114 112.38 50.4669 112.625 50.317C112.881 50.1564 113.115 49.9959 113.329 49.8353C113.542 49.6747 113.712 49.5302 113.84 49.4018C113.947 49.3054 114.038 49.2519 114.112 49.2412C114.187 49.2305 114.24 49.2519 114.272 49.3054C114.304 49.3589 114.31 49.4339 114.288 49.5302C114.267 49.6266 114.208 49.7336 114.112 49.8514C114.059 49.9156 113.92 50.044 113.696 50.2367C113.483 50.4294 113.227 50.6381 112.929 50.8629C112.63 51.0877 112.305 51.3072 111.953 51.5213C111.601 51.7354 111.265 51.8959 110.945 52.003ZM108.242 49.5623C108.21 49.6587 108.194 49.7604 108.194 49.8674C108.194 50.0387 108.205 50.2207 108.226 50.4133C108.248 50.5953 108.301 50.7612 108.386 50.9111C108.471 51.061 108.605 51.1894 108.786 51.2965C108.978 51.3928 109.239 51.441 109.57 51.441C109.623 51.441 109.676 51.441 109.73 51.441C109.783 51.4303 109.836 51.4196 109.89 51.4089C109.922 51.2697 109.948 51.1466 109.97 51.0396C110.002 50.9218 110.018 50.8201 110.018 50.7345C110.039 50.5311 110.039 50.3224 110.018 50.1083C109.996 49.8942 109.954 49.7015 109.89 49.5302C109.836 49.3482 109.762 49.2037 109.666 49.0967C109.58 48.9789 109.474 48.92 109.346 48.92C109.143 48.92 108.946 48.9789 108.754 49.0967C108.573 49.2037 108.402 49.3589 108.242 49.5623ZM107.219 52.3883C107.219 52.581 107.229 52.7737 107.251 52.9664C107.272 53.1484 107.314 53.3143 107.378 53.4642C107.442 53.6033 107.528 53.7211 107.634 53.8174C107.741 53.903 107.88 53.9459 108.05 53.9459C108.242 53.9459 108.418 53.903 108.578 53.8174C108.738 53.7211 108.882 53.6033 109.01 53.4642C109.138 53.3143 109.25 53.1484 109.346 52.9664C109.452 52.7737 109.543 52.5757 109.618 52.3723C109.543 52.383 109.468 52.3937 109.394 52.4044C109.33 52.4044 109.255 52.4044 109.17 52.4044C108.765 52.4044 108.413 52.2867 108.114 52.0512C107.826 51.8049 107.602 51.4945 107.442 51.1198C107.378 51.3446 107.325 51.5641 107.283 51.7782C107.24 51.9923 107.219 52.1957 107.219 52.3883Z" fill="#004897"/>
<path d="M112.049 54.4757C111.974 54.5935 111.894 54.6684 111.809 54.7005C111.713 54.7434 111.633 54.7487 111.569 54.7166C111.494 54.6952 111.446 54.6417 111.425 54.556C111.404 54.4704 111.425 54.3633 111.489 54.2349C111.521 54.1707 111.596 54.0262 111.713 53.8014C111.82 53.5766 111.953 53.3089 112.113 52.9985C112.262 52.6774 112.428 52.3348 112.609 51.9709C112.79 51.5962 112.961 51.243 113.121 50.9111C113.291 50.5793 113.446 50.2849 113.584 50.028C113.723 49.7604 113.824 49.5677 113.888 49.4499C113.771 49.3429 113.691 49.2679 113.648 49.2251C113.606 49.1716 113.574 49.0646 113.552 48.904C113.531 48.7648 113.563 48.5829 113.648 48.3581C113.734 48.1333 113.846 47.9192 113.984 47.7158C114.123 47.5017 114.278 47.3197 114.448 47.1698C114.619 47.02 114.784 46.945 114.944 46.945C115.243 46.945 115.451 47.0414 115.568 47.2341C115.696 47.4268 115.77 47.6248 115.792 47.8282C115.813 47.9673 115.802 48.144 115.76 48.3581C115.717 48.5721 115.637 48.7648 115.52 48.9361C115.552 48.9575 115.594 48.9843 115.648 49.0164C115.701 49.0378 115.786 49.0485 115.904 49.0485C116.074 49.0485 116.192 49.0378 116.256 49.0164C116.33 48.995 116.442 48.9843 116.592 48.9843C116.773 48.9843 116.922 49.0324 117.039 49.1288C117.157 49.2144 117.253 49.3268 117.327 49.466C117.402 49.5944 117.455 49.739 117.487 49.8995C117.53 50.0494 117.557 50.1885 117.567 50.317C117.599 50.5846 117.53 50.8629 117.359 51.152C117.189 51.441 116.981 51.7568 116.735 52.0993C116.586 52.3134 116.437 52.5543 116.288 52.8219C116.138 53.0895 116.074 53.3304 116.096 53.5444C116.117 53.6836 116.154 53.796 116.208 53.8816C116.261 53.9673 116.41 54.0101 116.655 54.0101C116.837 54.0101 117.034 53.9459 117.247 53.8174C117.471 53.6783 117.695 53.507 117.919 53.3036C118.154 53.0895 118.383 52.8593 118.607 52.6131C118.831 52.3562 119.039 52.11 119.231 51.8745C119.423 51.6283 119.583 51.4089 119.711 51.2162C119.849 51.0235 119.95 50.8843 120.014 50.7987C120.068 50.7131 120.137 50.6542 120.222 50.6221C120.308 50.59 120.382 50.59 120.446 50.6221C120.51 50.6542 120.548 50.7184 120.558 50.8148C120.58 50.9111 120.542 51.0396 120.446 51.2001C120.382 51.3072 120.27 51.4785 120.11 51.714C119.961 51.9495 119.774 52.2117 119.551 52.5007C119.337 52.7898 119.097 53.0895 118.831 53.3999C118.564 53.6997 118.282 53.978 117.983 54.2349C117.695 54.4811 117.402 54.6845 117.103 54.8451C116.815 55.0056 116.538 55.0859 116.272 55.0859C115.994 55.0859 115.765 55.0324 115.584 54.9253C115.403 54.8183 115.253 54.6898 115.136 54.54C115.029 54.3794 114.949 54.2081 114.896 54.0262C114.853 53.8335 114.837 53.6568 114.848 53.4963C114.859 53.3678 114.891 53.234 114.944 53.0949C115.008 52.945 115.077 52.7951 115.152 52.6453C115.237 52.4847 115.323 52.3295 115.408 52.1796C115.504 52.019 115.589 51.8638 115.664 51.714C115.845 51.4035 115.989 51.1413 116.096 50.9272C116.213 50.7024 116.272 50.515 116.272 50.3652C116.272 50.2688 116.25 50.1832 116.208 50.1083C116.165 50.0333 116.096 49.9959 116 49.9959C115.936 49.9959 115.888 50.0012 115.856 50.0119C115.834 50.0119 115.808 50.0119 115.776 50.0119C115.754 50.0119 115.717 50.0173 115.664 50.028C115.621 50.028 115.552 50.028 115.456 50.028C115.317 50.028 115.2 50.0066 115.104 49.9637C115.008 49.9209 114.917 49.8888 114.832 49.8674C114.789 49.9423 114.693 50.1029 114.544 50.3491C114.395 50.5953 114.219 50.8843 114.016 51.2162C113.824 51.548 113.616 51.8959 113.393 52.2599C113.179 52.6238 112.977 52.9664 112.785 53.2875C112.593 53.598 112.433 53.8656 112.305 54.0904C112.166 54.3045 112.081 54.4329 112.049 54.4757Z" fill="#004897"/>
<path d="M119.071 54.2991C119.54 52.3188 119.913 50.7291 120.19 49.5302C120.478 48.3313 120.697 47.416 120.846 46.7845C121.017 46.0352 121.134 45.516 121.198 45.227C121.23 45.0236 121.257 44.8255 121.278 44.6328C121.299 44.4616 121.31 44.2849 121.31 44.103C121.31 43.921 121.294 43.7551 121.262 43.6052C121.347 43.5517 121.438 43.5089 121.534 43.4767C121.641 43.4446 121.742 43.4179 121.838 43.3965C121.955 43.3644 122.072 43.3376 122.19 43.3162C122.307 43.2948 122.414 43.2841 122.51 43.2841C122.595 43.2841 122.675 43.2948 122.75 43.3162C122.824 43.3269 122.872 43.359 122.893 43.4125C122.957 43.466 122.984 43.5731 122.973 43.7337C122.973 43.8942 122.963 44.0602 122.941 44.2314C122.899 44.4348 122.851 44.6543 122.798 44.8898C122.67 45.3501 122.494 46.0137 122.27 46.8808C122.078 47.6194 121.816 48.6257 121.486 49.8995C121.166 51.1734 120.761 52.7791 120.27 54.7166C120.217 54.7701 120.153 54.8076 120.078 54.829C120.004 54.8504 119.934 54.8611 119.87 54.8611C119.796 54.8611 119.716 54.8558 119.631 54.8451C119.556 54.8236 119.481 54.7915 119.407 54.7487C119.343 54.7059 119.279 54.647 119.215 54.5721C119.151 54.5079 119.103 54.4169 119.071 54.2991Z" fill="#004897"/>
<path d="M127.98 51.4892C127.927 51.821 127.873 52.1368 127.82 52.4365C127.777 52.7362 127.751 52.9771 127.74 53.1591C127.729 53.4267 127.777 53.6194 127.884 53.7371C127.991 53.8549 128.108 53.9138 128.236 53.9138C128.385 53.9138 128.566 53.8388 128.78 53.689C129.004 53.5391 129.238 53.3518 129.483 53.127C129.729 52.9022 129.974 52.656 130.219 52.3883C130.464 52.1207 130.688 51.8692 130.891 51.6337C131.104 51.3875 131.28 51.1734 131.419 50.9914C131.568 50.8094 131.669 50.6917 131.723 50.6381C131.787 50.5739 131.851 50.5364 131.915 50.5257C131.989 50.515 132.048 50.5257 132.091 50.5579C132.133 50.59 132.155 50.6488 132.155 50.7345C132.155 50.8201 132.112 50.9272 132.027 51.0556C131.899 51.259 131.733 51.4999 131.531 51.7782C131.328 52.0458 131.104 52.3241 130.859 52.6131C130.614 52.9022 130.352 53.1858 130.075 53.4642C129.809 53.7425 129.537 53.9887 129.259 54.2028C128.993 54.4169 128.732 54.5881 128.476 54.7166C128.23 54.8558 128.007 54.9253 127.804 54.9253C127.655 54.9253 127.511 54.8825 127.372 54.7969C127.244 54.7112 127.127 54.5989 127.02 54.4597C126.914 54.3205 126.828 54.1653 126.764 53.994C126.711 53.8228 126.69 53.6515 126.7 53.4802C126.711 53.4053 126.727 53.2768 126.748 53.0949C126.3 53.598 125.847 53.9994 125.389 54.2991C124.941 54.5881 124.509 54.7327 124.093 54.7327C123.944 54.7327 123.784 54.6952 123.613 54.6203C123.443 54.5453 123.288 54.4222 123.149 54.2509C123.021 54.0797 122.915 53.8549 122.83 53.5766C122.744 53.2982 122.712 52.961 122.734 52.565C122.766 51.9441 122.888 51.3554 123.101 50.7987C123.315 50.2421 123.581 49.7604 123.901 49.3536C124.232 48.9361 124.6 48.6096 125.005 48.3741C125.421 48.1279 125.837 48.0048 126.252 48.0048C126.434 48.0048 126.599 48.053 126.748 48.1493C126.898 48.235 127.025 48.3527 127.132 48.5026C127.239 48.6417 127.324 48.7969 127.388 48.9682C127.463 49.1395 127.516 49.3001 127.548 49.4499C127.623 49.1395 127.692 48.8344 127.756 48.5347C127.82 48.235 127.884 47.9513 127.948 47.6837C128.054 47.2876 128.166 46.8594 128.284 46.3991C128.39 46.003 128.513 45.5481 128.652 45.0343C128.79 44.5204 128.945 43.9799 129.115 43.4125C129.222 43.3269 129.323 43.2627 129.419 43.2198C129.515 43.177 129.606 43.1449 129.691 43.1235C129.787 43.0914 129.878 43.0753 129.963 43.0753C130.07 43.0753 130.166 43.0914 130.251 43.1235C130.336 43.1449 130.406 43.2145 130.459 43.3322C130.523 43.4393 130.566 43.6052 130.587 43.83C130.608 44.0548 130.608 44.3599 130.587 44.7452C130.566 45.2163 130.48 45.7301 130.331 46.2867C130.192 46.8434 130.006 47.4214 129.771 48.0209C129.537 48.6096 129.265 49.2037 128.956 49.8032C128.657 50.3919 128.332 50.9539 127.98 51.4892ZM127.036 51.6979C127.079 51.4945 127.116 51.2911 127.148 51.0877C127.191 50.8843 127.239 50.6756 127.292 50.4615C127.271 50.4722 127.249 50.4829 127.228 50.4936C127.217 50.5043 127.201 50.515 127.18 50.5257C127.063 50.5793 126.983 50.5793 126.94 50.5257C126.898 50.4615 126.876 50.3652 126.876 50.2367C126.876 50.1725 126.871 50.0601 126.86 49.8995C126.85 49.7282 126.818 49.557 126.764 49.3857C126.722 49.2037 126.652 49.0485 126.556 48.92C126.46 48.7809 126.327 48.7113 126.156 48.7113C125.911 48.7113 125.661 48.8398 125.405 49.0967C125.149 49.3429 124.909 49.648 124.685 50.0119C124.461 50.3652 124.274 50.7452 124.125 51.152C123.976 51.5587 123.89 51.9227 123.869 52.2438C123.848 52.7577 123.912 53.127 124.061 53.3518C124.21 53.5766 124.413 53.689 124.669 53.689C124.861 53.689 125.069 53.614 125.293 53.4642C125.527 53.3143 125.751 53.1323 125.964 52.9182C126.188 52.7041 126.391 52.4847 126.572 52.2599C126.764 52.0351 126.919 51.8478 127.036 51.6979Z" fill="#004897"/>
<path d="M143.735 51.7782C143.586 52.1635 143.415 52.5382 143.223 52.9022C143.031 53.2661 142.818 53.5926 142.583 53.8816C142.349 54.1707 142.098 54.4008 141.831 54.5721C141.565 54.7434 141.277 54.829 140.968 54.829C140.466 54.829 140.088 54.6631 139.832 54.3312C139.576 53.9887 139.4 53.5712 139.304 53.0788C139.155 53.3036 138.995 53.5284 138.824 53.7532C138.654 53.978 138.472 54.176 138.281 54.3473C138.089 54.5186 137.891 54.6577 137.689 54.7648C137.486 54.8718 137.284 54.9253 137.081 54.9253C136.804 54.9253 136.569 54.8665 136.377 54.7487C136.185 54.631 136.025 54.4704 135.897 54.267C135.78 54.0529 135.695 53.8121 135.641 53.5444C135.588 53.2661 135.561 52.9717 135.561 52.6613V52.4686C135.561 52.0726 135.593 51.6658 135.657 51.2483C135.721 50.8308 135.791 50.4455 135.865 50.0922C135.951 49.739 136.036 49.4339 136.121 49.177C136.207 48.9093 136.271 48.7327 136.313 48.6471C136.388 48.54 136.548 48.4383 136.793 48.342C137.049 48.235 137.3 48.1921 137.545 48.2135C137.662 48.2242 137.721 48.2724 137.721 48.3581C137.731 48.4437 137.721 48.5507 137.689 48.6792C137.646 48.8612 137.571 49.1341 137.465 49.4981C137.358 49.8621 137.246 50.2581 137.129 50.6863C137.022 51.1145 136.926 51.5373 136.841 51.9548C136.756 52.3723 136.713 52.7202 136.713 52.9985C136.713 53.3411 136.766 53.5873 136.873 53.7371C136.98 53.887 137.145 53.9619 137.369 53.9619C137.635 53.9619 137.929 53.8121 138.249 53.5123C138.579 53.2126 138.899 52.7041 139.208 51.9869C139.198 51.9227 139.192 51.8585 139.192 51.7942C139.192 51.73 139.192 51.6604 139.192 51.5855C139.192 51.1038 139.208 50.6435 139.24 50.2046C139.283 49.7657 139.358 49.3803 139.464 49.0485C139.581 48.7167 139.736 48.4544 139.928 48.2617C140.131 48.069 140.392 47.9727 140.712 47.9727C140.84 47.9727 140.946 48.0102 141.032 48.0851C141.117 48.16 141.16 48.2671 141.16 48.4062C141.16 48.7488 141.037 49.2358 140.792 49.8674C140.557 50.4883 140.275 51.1734 139.944 51.9227C139.912 51.9655 139.891 52.0083 139.88 52.0512C139.912 52.2545 139.949 52.4686 139.992 52.6934C140.045 52.9182 140.115 53.127 140.2 53.3196C140.285 53.5016 140.387 53.6568 140.504 53.7853C140.621 53.903 140.76 53.9619 140.92 53.9619C141.154 53.9619 141.368 53.8495 141.559 53.6247C141.762 53.3999 141.938 53.127 142.087 52.8058C142.247 52.4847 142.386 52.1475 142.503 51.7942C142.62 51.4303 142.711 51.1091 142.775 50.8308C142.743 50.7131 142.716 50.6007 142.695 50.4936C142.674 50.3759 142.663 50.2421 142.663 50.0922C142.663 49.7604 142.711 49.4767 142.807 49.2412C142.903 49.0057 143.026 48.813 143.175 48.6631C143.335 48.5026 143.5 48.3848 143.671 48.3099C143.852 48.235 144.017 48.1975 144.167 48.1975C144.433 48.1975 144.567 48.3152 144.567 48.5507C144.567 48.722 144.524 49.0217 144.439 49.4499C144.353 49.8674 144.231 50.3438 144.071 50.879C144.263 50.9646 144.508 51.0075 144.806 51.0075C145.084 51.0075 145.34 50.9753 145.574 50.9111C145.809 50.8362 146.022 50.7452 146.214 50.6381C146.406 50.5311 146.582 50.4133 146.742 50.2849C146.902 50.1564 147.056 50.0333 147.206 49.9156C147.323 49.8299 147.419 49.8246 147.494 49.8995C147.568 49.9745 147.558 50.0922 147.462 50.2528C147.376 50.3919 147.227 50.5525 147.014 50.7345C146.811 50.9165 146.561 51.0931 146.262 51.2644C145.974 51.4249 145.649 51.5641 145.286 51.6818C144.934 51.7889 144.561 51.8424 144.167 51.8424C144.103 51.8424 144.033 51.8371 143.959 51.8264C143.884 51.8156 143.809 51.7996 143.735 51.7782Z" fill="#004897"/>
<path d="M149.509 45.0985C149.477 45.2163 149.413 45.334 149.317 45.4518C149.232 45.5588 149.13 45.6498 149.013 45.7247C148.906 45.7889 148.794 45.8318 148.677 45.8532C148.56 45.8746 148.464 45.8532 148.389 45.7889C148.165 45.6177 148.048 45.4357 148.037 45.243C148.027 45.0396 148.075 44.8523 148.181 44.681C148.288 44.499 148.421 44.3492 148.581 44.2314C148.741 44.103 148.88 44.028 148.997 44.0066C149.114 43.9852 149.21 44.012 149.285 44.0869C149.37 44.1511 149.434 44.2421 149.477 44.3599C149.52 44.4669 149.541 44.59 149.541 44.7292C149.552 44.8684 149.541 44.9915 149.509 45.0985ZM147.302 48.5186C147.355 48.4544 147.456 48.4009 147.606 48.3581C147.755 48.3152 147.909 48.2831 148.069 48.2617C148.229 48.2296 148.373 48.2135 148.501 48.2135C148.64 48.2028 148.72 48.2028 148.741 48.2135C148.752 48.2242 148.725 48.3366 148.661 48.5507C148.597 48.7648 148.517 49.0164 148.421 49.3054C148.325 49.5944 148.224 49.8942 148.117 50.2046C148.011 50.5043 147.931 50.7505 147.877 50.9432C147.824 51.1359 147.76 51.3553 147.686 51.6016C147.611 51.8371 147.542 52.0726 147.478 52.3081C147.424 52.5329 147.387 52.747 147.366 52.9503C147.344 53.1537 147.36 53.3089 147.414 53.416C147.467 53.5444 147.526 53.6354 147.59 53.689C147.654 53.7318 147.723 53.7532 147.797 53.7532C148.011 53.7532 148.277 53.6354 148.597 53.3999C148.928 53.1644 149.258 52.8861 149.589 52.565C149.93 52.2331 150.245 51.9013 150.533 51.5694C150.82 51.2269 151.034 50.9539 151.172 50.7505C151.258 50.6435 151.343 50.5739 151.428 50.5418C151.524 50.5097 151.599 50.515 151.652 50.5579C151.716 50.6007 151.748 50.6703 151.748 50.7666C151.759 50.8629 151.727 50.9753 151.652 51.1038C151.482 51.4035 151.231 51.7621 150.9 52.1796C150.57 52.5864 150.218 52.9825 149.845 53.3678C149.472 53.7425 149.104 54.0636 148.741 54.3312C148.389 54.5988 148.101 54.738 147.877 54.7487C147.696 54.7594 147.515 54.7273 147.334 54.6524C147.163 54.5881 147.003 54.4972 146.854 54.3794C146.715 54.2509 146.598 54.1064 146.502 53.9459C146.406 53.7746 146.353 53.598 146.342 53.416C146.31 53.1484 146.31 52.7844 146.342 52.3241C146.374 51.8531 146.433 51.3768 146.518 50.8951C146.603 50.4026 146.71 49.937 146.838 49.4981C146.976 49.0592 147.131 48.7327 147.302 48.5186Z" fill="#004897"/>
<path d="M156.387 50.4936C156.429 50.4294 156.483 50.3919 156.547 50.3812C156.621 50.3598 156.68 50.3652 156.723 50.3973C156.765 50.4294 156.787 50.4829 156.787 50.5579C156.797 50.6328 156.771 50.7345 156.707 50.8629C156.493 51.2697 156.211 51.7086 155.859 52.1796C155.518 52.6506 155.155 53.0949 154.771 53.5123C154.387 53.9191 154.014 54.2563 153.652 54.5239C153.289 54.7915 152.985 54.9253 152.74 54.9253C152.388 54.9253 152.095 54.8558 151.86 54.7166C151.626 54.5774 151.439 54.4062 151.3 54.2028C151.172 53.9994 151.082 53.7799 151.028 53.5444C150.975 53.2982 150.959 53.0734 150.98 52.8701C150.991 52.6988 151.028 52.3937 151.092 51.9548C151.156 51.5052 151.242 50.9914 151.348 50.4133C151.455 49.8246 151.572 49.1984 151.7 48.5347C151.839 47.8603 151.983 47.2127 152.132 46.5918C151.951 46.6132 151.77 46.6346 151.588 46.656C151.407 46.6774 151.242 46.6881 151.092 46.6881C150.751 46.6881 150.431 46.6507 150.133 46.5757C149.823 46.4901 149.594 46.4098 149.445 46.3349C149.36 46.2921 149.322 46.2332 149.333 46.1583C149.344 46.0726 149.376 45.9923 149.429 45.9174C149.482 45.8318 149.552 45.7622 149.637 45.7087C149.712 45.6444 149.781 45.6123 149.845 45.6123C150.047 45.6337 150.266 45.6551 150.501 45.6765C150.735 45.6873 150.991 45.6873 151.268 45.6765C151.471 45.6658 151.663 45.6498 151.844 45.6284C152.036 45.607 152.223 45.5802 152.404 45.5481C152.543 45.0343 152.676 44.59 152.804 44.2154C152.942 43.83 153.065 43.5624 153.172 43.4125C153.204 43.359 153.273 43.3162 153.38 43.2841C153.497 43.2412 153.62 43.2145 153.748 43.2038C153.876 43.1824 153.998 43.1824 154.115 43.2038C154.233 43.2145 154.318 43.252 154.371 43.3162C154.425 43.4018 154.446 43.6213 154.435 43.9745C154.425 44.3278 154.366 44.7774 154.259 45.3233C154.707 45.3233 155.102 45.3501 155.443 45.4036C155.795 45.4464 156.093 45.4999 156.339 45.5642C156.584 45.6177 156.781 45.6765 156.931 45.7408C157.08 45.7943 157.192 45.8318 157.266 45.8532C157.341 45.8746 157.378 45.9281 157.378 46.0137C157.389 46.0994 157.373 46.1904 157.33 46.2867C157.298 46.3723 157.24 46.4473 157.154 46.5115C157.069 46.5757 156.973 46.5971 156.867 46.5757C156.76 46.565 156.637 46.5436 156.499 46.5115C156.371 46.4794 156.211 46.4526 156.019 46.4312C155.838 46.4098 155.619 46.3884 155.363 46.367C155.107 46.3456 154.809 46.3349 154.467 46.3349C154.403 46.3349 154.329 46.3402 154.243 46.3509C154.169 46.3509 154.089 46.3509 154.003 46.3509C153.961 46.5222 153.918 46.6935 153.876 46.8648C153.844 47.0253 153.796 47.1966 153.732 47.3786C153.593 47.8068 153.433 48.2724 153.252 48.7755C153.092 49.2144 152.9 49.7175 152.676 50.2849C152.452 50.8522 152.201 51.457 151.924 52.0993C151.86 52.5596 151.865 52.9129 151.94 53.1591C152.025 53.3946 152.127 53.5659 152.244 53.6729C152.383 53.7907 152.553 53.8549 152.756 53.8656C152.916 53.887 153.108 53.8335 153.332 53.705C153.566 53.5659 153.806 53.3839 154.051 53.1591C154.297 52.9343 154.542 52.6881 154.787 52.4205C155.043 52.1528 155.278 51.8906 155.491 51.6337C155.704 51.3768 155.891 51.1466 156.051 50.9432C156.211 50.7291 156.323 50.5793 156.387 50.4936Z" fill="#004897"/>
<path d="M163.68 51.0235C163.755 50.9379 163.83 50.8951 163.904 50.8951C163.99 50.8843 164.054 50.9058 164.096 50.9593C164.15 51.0021 164.171 51.0717 164.16 51.168C164.16 51.2644 164.118 51.3714 164.032 51.4892C163.83 51.7675 163.595 52.0565 163.328 52.3562C163.062 52.6453 162.774 52.9289 162.465 53.2072C162.166 53.4856 161.862 53.7478 161.553 53.994C161.244 54.2402 160.945 54.4436 160.657 54.6042C160.337 54.7862 160.066 54.8772 159.842 54.8772C159.628 54.8772 159.415 54.738 159.202 54.4597C159.01 54.2135 158.914 53.9512 158.914 53.6729C158.925 53.3839 158.989 53.0253 159.106 52.5971C159.18 52.3295 159.282 52.0137 159.41 51.6497C159.548 51.2751 159.655 50.9165 159.73 50.5739C159.815 50.2314 159.842 49.9423 159.81 49.7068C159.778 49.4606 159.639 49.3375 159.394 49.3375C159.223 49.3375 159.037 49.3964 158.834 49.5142C158.642 49.6319 158.445 49.7871 158.242 49.9798C158.05 50.1618 157.864 50.3705 157.682 50.606C157.501 50.8415 157.341 51.0717 157.202 51.2965C157.117 51.714 157.032 52.1261 156.947 52.5329C156.872 52.8754 156.792 53.2501 156.707 53.6568C156.632 54.0529 156.557 54.4062 156.483 54.7166C156.419 54.7701 156.349 54.8076 156.275 54.829C156.2 54.8504 156.131 54.8611 156.067 54.8611C155.992 54.8611 155.918 54.8558 155.843 54.8451C155.758 54.8236 155.678 54.7915 155.603 54.7487C155.539 54.7059 155.475 54.647 155.411 54.5721C155.347 54.5079 155.299 54.4169 155.267 54.2991C155.747 52.3188 156.125 50.7291 156.403 49.5302C156.68 48.3313 156.893 47.416 157.043 46.7845C157.213 46.0352 157.33 45.516 157.394 45.227C157.426 45.0236 157.453 44.8255 157.474 44.6328C157.496 44.4616 157.506 44.2849 157.506 44.103C157.506 43.921 157.49 43.7551 157.458 43.6052C157.544 43.5517 157.634 43.5089 157.73 43.4767C157.837 43.4446 157.938 43.4179 158.034 43.3965C158.151 43.3644 158.269 43.3376 158.386 43.3162C158.503 43.2948 158.61 43.2841 158.706 43.2841C158.791 43.2841 158.871 43.2948 158.946 43.3162C159.021 43.3269 159.069 43.359 159.09 43.4125C159.154 43.466 159.18 43.5731 159.17 43.7337C159.17 43.8942 159.159 44.0602 159.138 44.2314C159.095 44.4348 159.047 44.6543 158.994 44.8898C158.77 45.7568 158.519 46.6025 158.242 47.4268C157.965 48.2403 157.709 49.1127 157.474 50.044C157.613 49.8299 157.778 49.6105 157.97 49.3857C158.162 49.1609 158.37 48.9575 158.594 48.7755C158.829 48.5829 159.074 48.4276 159.33 48.3099C159.586 48.1814 159.858 48.1172 160.146 48.1172C160.295 48.1172 160.433 48.144 160.561 48.1975C160.7 48.2403 160.817 48.3206 160.913 48.4383C161.02 48.5454 161.1 48.6953 161.153 48.8879C161.206 49.0699 161.228 49.3001 161.217 49.5784C161.217 49.7497 161.196 49.9263 161.153 50.1083C161.121 50.2902 161.073 50.4936 161.009 50.7184C160.945 50.9325 160.86 51.1734 160.753 51.441C160.657 51.7086 160.54 52.019 160.401 52.3723C160.305 52.6185 160.231 52.8272 160.178 52.9985C160.124 53.1698 160.135 53.3196 160.209 53.4481C160.305 53.6194 160.492 53.6622 160.769 53.5766C161.057 53.4802 161.484 53.2019 162.049 52.7416C162.177 52.6346 162.321 52.5007 162.481 52.3402C162.641 52.1796 162.795 52.019 162.945 51.8585C163.094 51.6872 163.233 51.5266 163.36 51.3768C163.488 51.2269 163.595 51.1091 163.68 51.0235Z" fill="#004897"/>
<path d="M175.852 51.3607C175.607 51.7675 175.325 52.1903 175.005 52.6292C174.695 53.0574 174.365 53.4535 174.013 53.8174C173.661 54.1707 173.299 54.465 172.925 54.7005C172.552 54.936 172.179 55.0538 171.806 55.0538C171.433 55.0538 171.161 54.9253 170.99 54.6684C170.83 54.4222 170.755 54.1439 170.766 53.8335C170.766 53.6943 170.777 53.5712 170.798 53.4642C170.83 53.3571 170.862 53.2608 170.894 53.1751C170.926 53.0895 170.958 53.0039 170.99 52.9182C171.033 52.8219 171.07 52.7148 171.102 52.5971C171.145 52.4579 171.145 52.3348 171.102 52.2278C171.07 52.11 171.027 52.0083 170.974 51.9227C170.878 52.0297 170.766 52.1261 170.638 52.2117C170.521 52.2867 170.372 52.3241 170.19 52.3241C170.062 52.3241 169.945 52.2652 169.838 52.1475C169.732 52.019 169.678 51.8638 169.678 51.6818C169.678 51.532 169.71 51.4089 169.774 51.3125C169.849 51.2162 169.929 51.1413 170.014 51.0877C170.11 51.0342 170.206 50.9967 170.302 50.9753C170.398 50.9539 170.478 50.9432 170.542 50.9432C170.574 50.9432 170.638 50.9486 170.734 50.9593C170.841 50.97 170.953 50.986 171.07 51.0075C171.454 50.697 171.726 50.4187 171.886 50.1725C172.056 49.9156 172.072 49.6854 171.934 49.482C171.848 49.3429 171.742 49.2733 171.614 49.2733C171.486 49.2626 171.353 49.2947 171.214 49.3696C171.075 49.4339 170.937 49.5195 170.798 49.6266C170.67 49.7336 170.553 49.8353 170.446 49.9316C170.233 50.1457 169.993 50.4026 169.726 50.7024C169.471 50.9914 169.257 51.2322 169.087 51.4249C169.012 51.7461 168.937 52.0833 168.863 52.4365C168.799 52.747 168.724 53.1002 168.639 53.4963C168.564 53.8816 168.484 54.2831 168.399 54.7005C168.335 54.7327 168.266 54.7541 168.191 54.7648C168.127 54.7862 168.068 54.8022 168.015 54.8129C167.951 54.8236 167.887 54.829 167.823 54.829C167.738 54.829 167.658 54.8236 167.583 54.8129C167.508 54.8129 167.45 54.7862 167.407 54.7327C167.354 54.6898 167.327 54.6149 167.327 54.5079C167.317 54.4008 167.343 54.2509 167.407 54.0583C167.492 53.7799 167.599 53.4106 167.727 52.9503C167.855 52.4793 167.988 51.9655 168.127 51.4089C168.266 50.8522 168.404 50.2742 168.543 49.6747C168.692 49.0646 168.831 48.4865 168.959 47.9406C169.087 47.3839 169.193 46.8862 169.279 46.4473C169.375 45.9977 169.444 45.6444 169.487 45.3875C169.518 45.1092 169.55 44.8416 169.582 44.5847C169.604 44.3706 169.614 44.1618 169.614 43.9585C169.625 43.7444 169.614 43.5838 169.582 43.4767C169.636 43.4232 169.71 43.3751 169.806 43.3322C169.902 43.2894 170.009 43.2573 170.126 43.2359C170.244 43.2038 170.382 43.177 170.542 43.1556C170.723 43.1342 170.873 43.1288 170.99 43.1396C171.118 43.1503 171.209 43.2038 171.262 43.3001C171.326 43.4072 171.337 43.5891 171.294 43.8461C171.262 44.0923 171.187 44.4402 171.07 44.8898C170.921 45.4678 170.766 45.9977 170.606 46.4794C170.457 46.9504 170.308 47.3946 170.158 47.8121C170.02 48.2296 169.881 48.6364 169.742 49.0324C169.614 49.4178 169.497 49.8139 169.391 50.2207C169.604 49.9102 169.87 49.5837 170.19 49.2412C170.51 48.8879 170.873 48.5989 171.278 48.3741C171.704 48.1493 172.056 48.0369 172.334 48.0369C172.675 48.0369 172.92 48.1547 173.069 48.3902C173.219 48.615 173.288 48.8826 173.277 49.193C173.267 49.4392 173.203 49.6694 173.085 49.8835C172.979 50.0869 172.845 50.2795 172.685 50.4615C172.526 50.6328 172.355 50.7827 172.174 50.9111C171.992 51.0396 171.838 51.1466 171.71 51.2322C171.859 51.3179 171.987 51.4356 172.094 51.5855C172.211 51.7247 172.264 51.9013 172.254 52.1154C172.243 52.4044 172.184 52.6613 172.078 52.8861C171.982 53.1002 171.934 53.2982 171.934 53.4802C171.944 53.6194 171.971 53.7211 172.014 53.7853C172.067 53.8495 172.174 53.8816 172.334 53.8816C172.621 53.8816 172.92 53.7585 173.229 53.5123C173.549 53.2661 173.848 52.9825 174.125 52.6613C174.402 52.3402 174.658 52.0244 174.893 51.714C175.127 51.3928 175.309 51.1573 175.437 51.0075C175.618 50.8148 175.767 50.7666 175.884 50.8629C176.012 50.9486 176.002 51.1145 175.852 51.3607Z" fill="#004897"/>
<path d="M179.611 54.9575C179.366 54.9575 179.153 54.9093 178.971 54.8129C178.801 54.7273 178.662 54.6096 178.556 54.4597C178.449 54.3098 178.38 54.1386 178.348 53.9459C178.316 53.7425 178.326 53.5284 178.38 53.3036C178.412 53.1537 178.465 52.9557 178.54 52.7095C178.614 52.4526 178.689 52.1796 178.764 51.8906C178.849 51.5909 178.923 51.2965 178.987 51.0075C179.062 50.7077 179.11 50.4401 179.131 50.2046C179.153 49.9584 179.142 49.7604 179.099 49.6105C179.057 49.4499 178.966 49.3696 178.827 49.3696C178.657 49.3696 178.481 49.4285 178.3 49.5463C178.118 49.6533 177.932 49.8032 177.74 49.9959C177.559 50.1885 177.372 50.4133 177.18 50.6703C176.999 50.9165 176.817 51.1734 176.636 51.441C176.54 51.8049 176.46 52.1261 176.396 52.4044C176.332 52.672 176.274 52.9182 176.22 53.143C176.178 53.3571 176.135 53.5498 176.092 53.7211C176.05 53.8816 176.012 54.0369 175.98 54.1867C175.948 54.2938 175.852 54.4008 175.693 54.5079C175.533 54.6042 175.362 54.6845 175.181 54.7487C174.999 54.8129 174.845 54.8451 174.717 54.8451C174.578 54.8451 174.52 54.7969 174.541 54.7005C174.552 54.6363 174.589 54.4918 174.653 54.267C174.706 54.0422 174.775 53.7799 174.861 53.4802C174.935 53.1698 175.015 52.8433 175.101 52.5007C175.186 52.1582 175.266 51.8317 175.341 51.5213C175.394 51.2751 175.453 51.0021 175.517 50.7024C175.57 50.4455 175.634 50.1457 175.709 49.8032C175.794 49.4606 175.89 49.086 175.996 48.6792C176.071 48.615 176.146 48.5668 176.22 48.5347C176.306 48.4919 176.391 48.4598 176.476 48.4383C176.562 48.4062 176.652 48.3848 176.748 48.3741C176.833 48.3741 176.919 48.3795 177.004 48.3902C177.079 48.4009 177.153 48.4223 177.228 48.4544C177.313 48.4758 177.388 48.5133 177.452 48.5668C177.42 48.6417 177.383 48.7488 177.34 48.8879C177.297 49.0164 177.255 49.1556 177.212 49.3054C177.169 49.4767 177.116 49.6533 177.052 49.8353C177.191 49.6426 177.345 49.4499 177.516 49.2572C177.697 49.0539 177.889 48.8719 178.092 48.7113C178.305 48.5507 178.529 48.4223 178.764 48.3259C178.998 48.2189 179.238 48.1654 179.483 48.1654C179.686 48.1654 179.867 48.2242 180.027 48.342C180.187 48.4598 180.31 48.6257 180.395 48.8398C180.491 49.0432 180.544 49.2894 180.555 49.5784C180.576 49.8674 180.539 50.1832 180.443 50.5257L180.267 51.2322C180.214 51.457 180.144 51.7247 180.059 52.0351C179.984 52.3348 179.888 52.6667 179.771 53.0306C179.707 53.2661 179.681 53.4695 179.691 53.6408C179.713 53.8121 179.819 53.8977 180.011 53.8977C180.203 53.8977 180.443 53.7799 180.731 53.5444C181.029 53.3089 181.328 53.0253 181.627 52.6934C181.925 52.3616 182.208 52.0244 182.474 51.6818C182.741 51.3286 182.944 51.0449 183.082 50.8308C183.178 50.6917 183.269 50.6007 183.354 50.5579C183.439 50.515 183.503 50.5097 183.546 50.5418C183.599 50.5739 183.626 50.6488 183.626 50.7666C183.626 50.8736 183.583 51.0128 183.498 51.1841C183.423 51.3339 183.306 51.532 183.146 51.7782C182.997 52.0244 182.816 52.2867 182.602 52.565C182.389 52.8433 182.16 53.127 181.915 53.416C181.669 53.6943 181.413 53.9512 181.147 54.1867C180.88 54.4115 180.614 54.5935 180.347 54.7327C180.091 54.8825 179.846 54.9575 179.611 54.9575Z" fill="#004897"/>
<path d="M187.161 52.003C187.054 52.4098 186.91 52.7898 186.729 53.143C186.548 53.4963 186.329 53.8014 186.073 54.0583C185.828 54.3152 185.545 54.5132 185.225 54.6524C184.916 54.8022 184.575 54.8772 184.202 54.8772C183.765 54.8772 183.418 54.7808 183.162 54.5881C182.917 54.4062 182.73 54.176 182.602 53.8977C182.485 53.6194 182.416 53.3143 182.394 52.9825C182.362 52.6506 182.346 52.3402 182.346 52.0512C182.346 51.8478 182.373 51.623 182.426 51.3768C182.469 51.1306 182.533 50.879 182.618 50.6221C182.704 50.3652 182.81 50.1083 182.938 49.8514C183.077 49.5944 183.237 49.3589 183.418 49.1448C183.482 48.9629 183.578 48.8023 183.706 48.6631C183.845 48.524 183.999 48.4116 184.17 48.3259C184.351 48.2296 184.543 48.16 184.746 48.1172C184.948 48.0637 185.145 48.0369 185.337 48.0369C185.369 48.0369 185.396 48.0423 185.417 48.053C185.449 48.0637 185.481 48.0744 185.513 48.0851C185.652 48.0958 185.823 48.1493 186.025 48.2457C186.238 48.342 186.441 48.4865 186.633 48.6792C186.836 48.8719 187.006 49.1181 187.145 49.4178C187.283 49.7068 187.353 50.0601 187.353 50.4776C187.353 50.5632 187.347 50.6703 187.337 50.7987C187.326 50.9165 187.315 51.0182 187.305 51.1038C187.55 51.0075 187.806 50.8897 188.073 50.7505C188.339 50.6114 188.595 50.4669 188.84 50.317C189.096 50.1564 189.331 49.9959 189.544 49.8353C189.757 49.6747 189.928 49.5302 190.056 49.4018C190.163 49.3054 190.253 49.2519 190.328 49.2412C190.402 49.2305 190.456 49.2519 190.488 49.3054C190.52 49.3589 190.525 49.4339 190.504 49.5302C190.482 49.6266 190.424 49.7336 190.328 49.8514C190.274 49.9156 190.136 50.044 189.912 50.2367C189.699 50.4294 189.443 50.6381 189.144 50.8629C188.846 51.0877 188.52 51.3072 188.169 51.5213C187.817 51.7354 187.481 51.8959 187.161 52.003ZM184.458 49.5623C184.426 49.6587 184.41 49.7604 184.41 49.8674C184.41 50.0387 184.42 50.2207 184.442 50.4133C184.463 50.5953 184.516 50.7612 184.602 50.9111C184.687 51.061 184.82 51.1894 185.002 51.2965C185.193 51.3928 185.455 51.441 185.785 51.441C185.839 51.441 185.892 51.441 185.945 51.441C185.999 51.4303 186.052 51.4196 186.105 51.4089C186.137 51.2697 186.164 51.1466 186.185 51.0396C186.217 50.9218 186.233 50.8201 186.233 50.7345C186.254 50.5311 186.254 50.3224 186.233 50.1083C186.212 49.8942 186.169 49.7015 186.105 49.5302C186.052 49.3482 185.977 49.2037 185.881 49.0967C185.796 48.9789 185.689 48.92 185.561 48.92C185.359 48.92 185.161 48.9789 184.97 49.0967C184.788 49.2037 184.618 49.3589 184.458 49.5623ZM183.434 52.3883C183.434 52.581 183.445 52.7737 183.466 52.9664C183.487 53.1484 183.53 53.3143 183.594 53.4642C183.658 53.6033 183.743 53.7211 183.85 53.8174C183.957 53.903 184.095 53.9459 184.266 53.9459C184.458 53.9459 184.634 53.903 184.794 53.8174C184.954 53.7211 185.097 53.6033 185.225 53.4642C185.353 53.3143 185.465 53.1484 185.561 52.9664C185.668 52.7737 185.759 52.5757 185.833 52.3723C185.759 52.383 185.684 52.3937 185.609 52.4044C185.545 52.4044 185.471 52.4044 185.385 52.4044C184.98 52.4044 184.628 52.2867 184.33 52.0512C184.042 51.8049 183.818 51.4945 183.658 51.1198C183.594 51.3446 183.541 51.5641 183.498 51.7782C183.455 51.9923 183.434 52.1957 183.434 52.3883Z" fill="#004897"/>
<path d="M197.206 51.7782C197.056 52.1635 196.886 52.5382 196.694 52.9022C196.502 53.2661 196.289 53.5926 196.054 53.8816C195.819 54.1707 195.569 54.4008 195.302 54.5721C195.036 54.7434 194.748 54.829 194.438 54.829C193.937 54.829 193.559 54.6631 193.303 54.3312C193.047 53.9887 192.871 53.5712 192.775 53.0788C192.626 53.3036 192.466 53.5284 192.295 53.7532C192.125 53.978 191.943 54.176 191.751 54.3473C191.559 54.5186 191.362 54.6577 191.16 54.7648C190.957 54.8718 190.754 54.9253 190.552 54.9253C190.275 54.9253 190.04 54.8665 189.848 54.7487C189.656 54.631 189.496 54.4704 189.368 54.267C189.251 54.0529 189.166 53.8121 189.112 53.5444C189.059 53.2661 189.032 52.9717 189.032 52.6613V52.4686C189.032 52.0726 189.064 51.6658 189.128 51.2483C189.192 50.8308 189.261 50.4455 189.336 50.0922C189.421 49.739 189.507 49.4339 189.592 49.177C189.677 48.9093 189.741 48.7327 189.784 48.6471C189.859 48.54 190.019 48.4383 190.264 48.342C190.52 48.235 190.77 48.1921 191.016 48.2135C191.133 48.2242 191.192 48.2724 191.192 48.3581C191.202 48.4437 191.192 48.5507 191.16 48.6792C191.117 48.8612 191.042 49.1341 190.936 49.4981C190.829 49.8621 190.717 50.2581 190.6 50.6863C190.493 51.1145 190.397 51.5373 190.312 51.9548C190.227 52.3723 190.184 52.7202 190.184 52.9985C190.184 53.3411 190.237 53.5873 190.344 53.7371C190.45 53.887 190.616 53.9619 190.84 53.9619C191.106 53.9619 191.399 53.8121 191.719 53.5123C192.05 53.2126 192.37 52.7041 192.679 51.9869C192.668 51.9227 192.663 51.8585 192.663 51.7942C192.663 51.73 192.663 51.6604 192.663 51.5855C192.663 51.1038 192.679 50.6435 192.711 50.2046C192.754 49.7657 192.828 49.3803 192.935 49.0485C193.052 48.7167 193.207 48.4544 193.399 48.2617C193.601 48.069 193.863 47.9727 194.183 47.9727C194.311 47.9727 194.417 48.0102 194.502 48.0851C194.588 48.16 194.63 48.2671 194.63 48.4062C194.63 48.7488 194.508 49.2358 194.263 49.8674C194.028 50.4883 193.745 51.1734 193.415 51.9227C193.383 51.9655 193.361 52.0083 193.351 52.0512C193.383 52.2545 193.42 52.4686 193.463 52.6934C193.516 52.9182 193.585 53.127 193.671 53.3196C193.756 53.5016 193.857 53.6568 193.975 53.7853C194.092 53.903 194.231 53.9619 194.391 53.9619C194.625 53.9619 194.838 53.8495 195.03 53.6247C195.233 53.3999 195.409 53.127 195.558 52.8058C195.718 52.4847 195.857 52.1475 195.974 51.7942C196.091 51.4303 196.182 51.1091 196.246 50.8308C196.214 50.7131 196.187 50.6007 196.166 50.4936C196.145 50.3759 196.134 50.2421 196.134 50.0922C196.134 49.7604 196.182 49.4767 196.278 49.2412C196.374 49.0057 196.496 48.813 196.646 48.6631C196.806 48.5026 196.971 48.3848 197.142 48.3099C197.323 48.235 197.488 48.1975 197.637 48.1975C197.904 48.1975 198.037 48.3152 198.037 48.5507C198.037 48.722 197.995 49.0217 197.909 49.4499C197.824 49.8674 197.701 50.3438 197.541 50.879C197.733 50.9646 197.979 51.0075 198.277 51.0075C198.554 51.0075 198.81 50.9753 199.045 50.9111C199.28 50.8362 199.493 50.7452 199.685 50.6381C199.877 50.5311 200.053 50.4133 200.213 50.2849C200.373 50.1564 200.527 50.0333 200.676 49.9156C200.794 49.8299 200.89 49.8246 200.964 49.8995C201.039 49.9745 201.028 50.0922 200.932 50.2528C200.847 50.3919 200.698 50.5525 200.485 50.7345C200.282 50.9165 200.031 51.0931 199.733 51.2644C199.445 51.4249 199.12 51.5641 198.757 51.6818C198.405 51.7889 198.032 51.8424 197.637 51.8424C197.573 51.8424 197.504 51.8371 197.43 51.8264C197.355 51.8156 197.28 51.7996 197.206 51.7782Z" fill="#004897"/>
<path d="M199.221 54.2991C199.69 52.3188 200.063 50.7291 200.341 49.5302C200.628 48.3313 200.847 47.416 200.996 46.7845C201.167 46.0352 201.284 45.516 201.348 45.227C201.38 45.0236 201.407 44.8255 201.428 44.6328C201.45 44.4616 201.46 44.2849 201.46 44.103C201.46 43.921 201.444 43.7551 201.412 43.6052C201.498 43.5517 201.588 43.5089 201.684 43.4767C201.791 43.4446 201.892 43.4179 201.988 43.3965C202.105 43.3644 202.223 43.3376 202.34 43.3162C202.457 43.2948 202.564 43.2841 202.66 43.2841C202.745 43.2841 202.825 43.2948 202.9 43.3162C202.974 43.3269 203.022 43.359 203.044 43.4125C203.108 43.466 203.134 43.5731 203.124 43.7337C203.124 43.8942 203.113 44.0602 203.092 44.2314C203.049 44.4348 203.001 44.6543 202.948 44.8898C202.82 45.3501 202.644 46.0137 202.42 46.8808C202.228 47.6194 201.967 48.6257 201.636 49.8995C201.316 51.1734 200.911 52.7791 200.421 54.7166C200.367 54.7701 200.303 54.8076 200.229 54.829C200.154 54.8504 200.085 54.8611 200.021 54.8611C199.946 54.8611 199.866 54.8558 199.781 54.8451C199.706 54.8236 199.631 54.7915 199.557 54.7487C199.493 54.7059 199.429 54.647 199.365 54.5721C199.301 54.5079 199.253 54.4169 199.221 54.2991Z" fill="#004897"/>
<path d="M210.289 51.2162C209.969 51.6872 209.607 52.1475 209.202 52.5971C208.797 53.036 208.365 53.432 207.906 53.7853C207.458 54.1278 206.994 54.4062 206.515 54.6203C206.045 54.8344 205.587 54.9414 205.139 54.9414C204.904 54.9414 204.649 54.8825 204.371 54.7648C204.105 54.6577 203.859 54.4865 203.636 54.2509C203.412 54.0154 203.23 53.7104 203.092 53.3357C202.964 52.961 202.926 52.5061 202.98 51.9709C203.022 51.532 203.156 51.0717 203.38 50.59C203.614 50.0976 203.897 49.648 204.227 49.2412C204.569 48.8344 204.947 48.4972 205.363 48.2296C205.79 47.962 206.216 47.8282 206.643 47.8282C207.048 47.8282 207.341 47.9299 207.522 48.1333C207.704 48.3366 207.784 48.5882 207.762 48.8879C207.73 49.2198 207.634 49.5249 207.474 49.8032C207.325 50.0815 207.144 50.3331 206.93 50.5579C206.717 50.7827 206.488 50.986 206.243 51.168C206.008 51.35 205.784 51.5159 205.571 51.6658C205.336 51.8264 205.112 51.9816 204.899 52.1314C204.686 52.2706 204.499 52.399 204.339 52.5168C204.35 52.7844 204.398 53.0092 204.483 53.1912C204.569 53.3732 204.675 53.523 204.803 53.6408C204.931 53.7478 205.075 53.8281 205.235 53.8816C205.406 53.9245 205.576 53.9459 205.747 53.9459C206.109 53.9459 206.488 53.8335 206.882 53.6087C207.277 53.3732 207.661 53.0949 208.034 52.7737C208.418 52.4419 208.77 52.0993 209.09 51.7461C209.42 51.3928 209.692 51.0877 209.906 50.8308C209.98 50.7452 210.055 50.697 210.129 50.6863C210.215 50.6649 210.279 50.6756 210.321 50.7184C210.375 50.7505 210.401 50.8148 210.401 50.9111C210.401 50.9967 210.364 51.0984 210.289 51.2162ZM206.195 48.7434C206.067 48.7434 205.912 48.8077 205.731 48.9361C205.56 49.0646 205.39 49.2519 205.219 49.4981C205.048 49.7336 204.888 50.028 204.739 50.3812C204.59 50.7238 204.478 51.1198 204.403 51.5694C204.531 51.4731 204.67 51.3768 204.819 51.2804C204.968 51.1734 205.118 51.061 205.267 50.9432C205.726 50.59 206.045 50.2795 206.227 50.0119C206.408 49.7443 206.509 49.5142 206.531 49.3215C206.552 49.1181 206.531 48.9736 206.467 48.8879C206.403 48.7916 206.312 48.7434 206.195 48.7434Z" fill="#004897"/>
<path d="M214.224 51.4892C214.171 51.821 214.117 52.1368 214.064 52.4365C214.022 52.7362 213.995 52.9771 213.984 53.1591C213.974 53.4267 214.022 53.6194 214.128 53.7371C214.235 53.8549 214.352 53.9138 214.48 53.9138C214.629 53.9138 214.811 53.8388 215.024 53.689C215.248 53.5391 215.482 53.3518 215.728 53.127C215.973 52.9022 216.218 52.656 216.463 52.3883C216.709 52.1207 216.933 51.8692 217.135 51.6337C217.348 51.3875 217.524 51.1734 217.663 50.9914C217.812 50.8094 217.914 50.6917 217.967 50.6381C218.031 50.5739 218.095 50.5364 218.159 50.5257C218.234 50.515 218.292 50.5257 218.335 50.5579C218.377 50.59 218.399 50.6488 218.399 50.7345C218.399 50.8201 218.356 50.9272 218.271 51.0556C218.143 51.259 217.978 51.4999 217.775 51.7782C217.572 52.0458 217.348 52.3241 217.103 52.6131C216.858 52.9022 216.597 53.1858 216.319 53.4642C216.053 53.7425 215.781 53.9887 215.504 54.2028C215.237 54.4169 214.976 54.5881 214.72 54.7166C214.475 54.8558 214.251 54.9253 214.048 54.9253C213.899 54.9253 213.755 54.8825 213.616 54.7969C213.488 54.7112 213.371 54.5989 213.264 54.4597C213.158 54.3205 213.072 54.1653 213.009 53.994C212.955 53.8228 212.934 53.6515 212.945 53.4802C212.955 53.4053 212.971 53.2768 212.993 53.0949C212.545 53.598 212.091 53.9994 211.633 54.2991C211.185 54.5881 210.753 54.7327 210.337 54.7327C210.188 54.7327 210.028 54.6952 209.858 54.6203C209.687 54.5453 209.532 54.4222 209.394 54.2509C209.266 54.0797 209.159 53.8549 209.074 53.5766C208.988 53.2982 208.956 52.961 208.978 52.565C209.01 51.9441 209.132 51.3554 209.346 50.7987C209.559 50.2421 209.826 49.7604 210.145 49.3536C210.476 48.9361 210.844 48.6096 211.249 48.3741C211.665 48.1279 212.081 48.0048 212.497 48.0048C212.678 48.0048 212.843 48.053 212.993 48.1493C213.142 48.235 213.27 48.3527 213.376 48.5026C213.483 48.6417 213.568 48.7969 213.632 48.9682C213.707 49.1395 213.76 49.3001 213.792 49.4499C213.867 49.1395 213.936 48.8344 214 48.5347C214.064 48.235 214.128 47.9513 214.192 47.6837C214.299 47.2876 214.411 46.8594 214.528 46.3991C214.635 46.003 214.757 45.5481 214.896 45.0343C215.035 44.5204 215.189 43.9799 215.36 43.4125C215.466 43.3269 215.568 43.2627 215.664 43.2198C215.76 43.177 215.85 43.1449 215.936 43.1235C216.032 43.0914 216.122 43.0753 216.207 43.0753C216.314 43.0753 216.41 43.0914 216.495 43.1235C216.581 43.1449 216.65 43.2145 216.703 43.3322C216.767 43.4393 216.81 43.6052 216.831 43.83C216.853 44.0548 216.853 44.3599 216.831 44.7452C216.81 45.2163 216.725 45.7301 216.575 46.2867C216.437 46.8434 216.25 47.4214 216.016 48.0209C215.781 48.6096 215.509 49.2037 215.2 49.8032C214.901 50.3919 214.576 50.9539 214.224 51.4892ZM213.28 51.6979C213.323 51.4945 213.36 51.2911 213.392 51.0877C213.435 50.8843 213.483 50.6756 213.536 50.4615C213.515 50.4722 213.494 50.4829 213.472 50.4936C213.462 50.5043 213.446 50.515 213.424 50.5257C213.307 50.5793 213.227 50.5793 213.184 50.5257C213.142 50.4615 213.12 50.3652 213.12 50.2367C213.12 50.1725 213.115 50.0601 213.104 49.8995C213.094 49.7282 213.062 49.557 213.009 49.3857C212.966 49.2037 212.897 49.0485 212.801 48.92C212.705 48.7809 212.571 48.7113 212.401 48.7113C212.155 48.7113 211.905 48.8398 211.649 49.0967C211.393 49.3429 211.153 49.648 210.929 50.0119C210.705 50.3652 210.519 50.7452 210.369 51.152C210.22 51.5587 210.135 51.9227 210.113 52.2438C210.092 52.7577 210.156 53.127 210.305 53.3518C210.455 53.5766 210.657 53.689 210.913 53.689C211.105 53.689 211.313 53.614 211.537 53.4642C211.772 53.3143 211.995 53.1323 212.209 52.9182C212.433 52.7041 212.635 52.4847 212.817 52.2599C213.009 52.0351 213.163 51.8478 213.28 51.6979Z" fill="#004897"/>
<path d="M221.278 56.8522C221.225 57.1091 221.155 57.4302 221.07 57.8156C220.995 58.201 220.905 58.6077 220.798 59.0359C220.702 59.4641 220.585 59.8869 220.446 60.3044C220.318 60.7326 220.174 61.1126 220.014 61.4445C219.854 61.787 219.678 62.0653 219.486 62.2794C219.294 62.4935 219.081 62.6006 218.847 62.6006C218.495 62.6006 218.191 62.4935 217.935 62.2794C217.69 62.076 217.482 61.8138 217.311 61.4926C217.141 61.1822 217.018 60.845 216.943 60.481C216.858 60.1171 216.815 59.7799 216.815 59.4695C216.815 59.0413 216.853 58.6827 216.927 58.3936C217.002 58.1153 217.13 57.8477 217.311 57.5908C217.503 57.3339 217.759 57.0609 218.079 56.7719C218.399 56.4829 218.809 56.1243 219.31 55.6961C219.556 55.482 219.79 55.2786 220.014 55.0859C220.238 54.8932 220.451 54.7166 220.654 54.556C220.707 54.3419 220.755 54.1439 220.798 53.9619C220.851 53.7692 220.894 53.598 220.926 53.4481C220.649 53.8228 220.313 54.1386 219.918 54.3955C219.534 54.6524 219.092 54.7808 218.591 54.7808C218.132 54.7808 217.759 54.5774 217.471 54.1707C217.194 53.7532 217.055 53.143 217.055 52.3402C217.055 51.9441 217.13 51.4892 217.279 50.9753C217.428 50.4615 217.642 49.9798 217.919 49.5302C218.196 49.0806 218.537 48.7006 218.943 48.3902C219.348 48.0797 219.801 47.9245 220.302 47.9245C220.537 47.9245 220.739 47.9834 220.91 48.1011C221.081 48.2189 221.225 48.3688 221.342 48.5507C221.459 48.722 221.55 48.9093 221.614 49.1127C221.678 49.3054 221.726 49.4874 221.758 49.6587C221.779 49.5944 221.795 49.5302 221.806 49.466C221.816 49.3911 221.832 49.3268 221.854 49.2733C221.96 48.9093 222.078 48.6631 222.206 48.5347C222.344 48.3955 222.547 48.3259 222.813 48.3259C222.963 48.3259 223.085 48.3527 223.181 48.4062C223.288 48.4598 223.341 48.5079 223.341 48.5507C223.288 48.6685 223.245 48.7595 223.213 48.8237C223.181 48.8879 223.149 48.9575 223.117 49.0324C223.085 49.0967 223.053 49.1823 223.021 49.2894C222.989 49.3964 222.947 49.5516 222.893 49.755C222.872 49.8299 222.829 50.0066 222.765 50.2849C222.712 50.5525 222.637 50.8736 222.541 51.2483C222.456 51.623 222.36 52.0351 222.254 52.4847C222.158 52.9343 222.062 53.3732 221.966 53.8014C222.264 53.6301 222.573 53.4213 222.893 53.1751C223.213 52.9289 223.517 52.6774 223.805 52.4205C224.093 52.1635 224.349 51.9227 224.573 51.6979C224.797 51.4624 224.962 51.2697 225.069 51.1198C225.154 50.9914 225.25 50.9004 225.357 50.8469C225.463 50.7934 225.554 50.7773 225.628 50.7987C225.714 50.8094 225.762 50.8576 225.772 50.9432C225.794 51.0182 225.762 51.1252 225.676 51.2644C225.431 51.6604 225.133 52.0458 224.781 52.4205C224.429 52.7844 224.066 53.127 223.693 53.4481C223.331 53.7585 222.973 54.0369 222.621 54.2831C222.28 54.5186 221.987 54.7112 221.742 54.8611C221.635 55.3428 221.544 55.7335 221.47 56.0333C221.395 56.333 221.331 56.606 221.278 56.8522ZM219.263 53.689C219.486 53.689 219.694 53.6301 219.886 53.5123C220.089 53.3946 220.27 53.2608 220.43 53.1109C220.59 52.9503 220.723 52.7898 220.83 52.6292C220.937 52.4686 221.017 52.3402 221.07 52.2438C221.113 52.1475 221.161 52.019 221.214 51.8585C221.278 51.6979 221.326 51.5427 221.358 51.3928C221.39 51.243 221.4 51.1091 221.39 50.9914C221.39 50.8736 221.353 50.8094 221.278 50.7987C221.214 50.788 221.161 50.7452 221.118 50.6703C221.086 50.5953 221.059 50.5097 221.038 50.4133C221.017 50.317 221.001 50.2207 220.99 50.1243C220.99 50.028 220.985 49.9423 220.974 49.8674C220.921 49.4927 220.83 49.2198 220.702 49.0485C220.574 48.8772 220.43 48.7916 220.27 48.7916C220.004 48.7916 219.748 48.8986 219.502 49.1127C219.268 49.3268 219.055 49.6051 218.863 49.9477C218.681 50.2795 218.537 50.6488 218.431 51.0556C218.324 51.4517 218.271 51.8317 218.271 52.1957C218.271 52.6453 218.335 53.0092 218.463 53.2875C218.591 53.5551 218.857 53.689 219.263 53.689ZM218.527 61.1394C218.74 61.1394 218.911 60.9788 219.039 60.6577C219.177 60.3472 219.321 59.919 219.47 59.3731C219.502 59.2447 219.545 59.0573 219.598 58.8111C219.662 58.5756 219.732 58.3026 219.806 57.9922C219.892 57.6818 219.977 57.3446 220.062 56.9806C220.148 56.6274 220.238 56.2688 220.334 55.9048C220.249 55.9797 220.158 56.0547 220.062 56.1296C219.977 56.2152 219.886 56.3116 219.79 56.4186C219.556 56.6434 219.326 56.8575 219.103 57.0609C218.889 57.275 218.697 57.4944 218.527 57.7192C218.356 57.9547 218.218 58.2063 218.111 58.4739C218.015 58.7415 217.967 59.052 217.967 59.4052C217.967 59.7585 217.978 60.0475 217.999 60.2723C218.031 60.4971 218.068 60.6737 218.111 60.8022C218.164 60.9306 218.223 61.0163 218.287 61.0591C218.361 61.1126 218.441 61.1394 218.527 61.1394Z" fill="#004897"/>
<path d="M231.834 51.2162C231.515 51.6872 231.152 52.1475 230.747 52.5971C230.342 53.036 229.91 53.432 229.451 53.7853C229.003 54.1278 228.54 54.4062 228.06 54.6203C227.59 54.8344 227.132 54.9414 226.684 54.9414C226.45 54.9414 226.194 54.8825 225.916 54.7648C225.65 54.6577 225.405 54.4865 225.181 54.2509C224.957 54.0154 224.775 53.7104 224.637 53.3357C224.509 52.961 224.471 52.5061 224.525 51.9709C224.567 51.532 224.701 51.0717 224.925 50.59C225.159 50.0976 225.442 49.648 225.772 49.2412C226.114 48.8344 226.492 48.4972 226.908 48.2296C227.335 47.962 227.761 47.8282 228.188 47.8282C228.593 47.8282 228.886 47.9299 229.067 48.1333C229.249 48.3366 229.329 48.5882 229.307 48.8879C229.275 49.2198 229.179 49.5249 229.019 49.8032C228.87 50.0815 228.689 50.3331 228.476 50.5579C228.262 50.7827 228.033 50.986 227.788 51.168C227.553 51.35 227.329 51.5159 227.116 51.6658C226.881 51.8264 226.657 51.9816 226.444 52.1314C226.231 52.2706 226.044 52.399 225.884 52.5168C225.895 52.7844 225.943 53.0092 226.028 53.1912C226.114 53.3732 226.22 53.523 226.348 53.6408C226.476 53.7478 226.62 53.8281 226.78 53.8816C226.951 53.9245 227.121 53.9459 227.292 53.9459C227.654 53.9459 228.033 53.8335 228.428 53.6087C228.822 53.3732 229.206 53.0949 229.579 52.7737C229.963 52.4419 230.315 52.0993 230.635 51.7461C230.965 51.3928 231.237 51.0877 231.451 50.8308C231.525 50.7452 231.6 50.697 231.675 50.6863C231.76 50.6649 231.824 50.6756 231.866 50.7184C231.92 50.7505 231.946 50.8148 231.946 50.9111C231.946 50.9967 231.909 51.0984 231.834 51.2162ZM227.74 48.7434C227.612 48.7434 227.457 48.8077 227.276 48.9361C227.105 49.0646 226.935 49.2519 226.764 49.4981C226.593 49.7336 226.434 50.028 226.284 50.3812C226.135 50.7238 226.023 51.1198 225.948 51.5694C226.076 51.4731 226.215 51.3768 226.364 51.2804C226.514 51.1734 226.663 51.061 226.812 50.9432C227.271 50.59 227.59 50.2795 227.772 50.0119C227.953 49.7443 228.054 49.5142 228.076 49.3215C228.097 49.1181 228.076 48.9736 228.012 48.8879C227.948 48.7916 227.857 48.7434 227.74 48.7434Z" fill="#004897"/>
</svg>
